<svg xmlns="http://www.w3.org/2000/svg" version="1.1" xmlns:xlink="http://www.w3.org/1999/xlink" xmlns:svgjs="http://svgjs.dev/svgjs" width="1500" height="939" viewBox="0 0 1500 939"><g transform="matrix(1,0,0,1,-0.9090909090909918,-1.5145161290323017)"><svg viewBox="0 0 396 248" data-background-color="#ffffff" preserveAspectRatio="xMidYMid meet" height="939" width="1500" xmlns="http://www.w3.org/2000/svg" xmlns:xlink="http://www.w3.org/1999/xlink"><g id="tight-bounds" transform="matrix(1,0,0,1,0.2400000000000091,0.4000000000000057)"><svg viewBox="0 0 395.52 247.2" height="247.2" width="395.52"><g><svg></svg></g><g><svg viewBox="0 0 395.52 247.2" height="247.2" width="395.52"><mask id="08351a6f-d642-45f3-9372-4ef77d8243c4"><rect width="640" height="400" fill="white"></rect><g transform="matrix(1,0,0,1,68.08131147540982,69.94236389370951)"><svg viewBox="0 0 259.35737704918034 107.31527221258095" height="107.31527221258095" width="259.35737704918034"><g><svg viewBox="0 0 259.35737704918034 107.31527221258095" height="107.31527221258095" width="259.35737704918034"><g><svg viewBox="0 0 259.35737704918034 107.31527221258095" height="107.31527221258095" width="259.35737704918034"><g><svg viewBox="0 0 259.35737704918034 107.31527221258095" height="107.31527221258095" width="259.35737704918034"><g id="SvgjsG6629"><svg viewBox="0 0 259.35737704918034 107.31527221258095" height="107.31527221258095" width="259.35737704918034" id="SvgjsSvg6628"><g><svg viewBox="0 0 259.35737704918034 74.0881562950653" height="74.0881562950653" width="259.35737704918034"><g transform="matrix(1,0,0,1,0,0)"><svg width="259.35737704918034" viewBox="-3.19 -40.84 156.59 45.45" height="74.0881562950653" data-palette-color="#135d66"><path d="M29.15-33.54L29.15-25.56 26.2-25.56 25.49-30.25Q25.32-31.1 24.66-31.1L24.66-31.1 17.5-31.1 17.5-3.44Q17.5-3.08 17.76-2.73 18.02-2.39 18.55-2.34L18.55-2.34 21.75-2.15 21.75 0 8.2 0 8.2-2.15 11.4-2.34Q11.94-2.39 12.19-2.73 12.45-3.08 12.45-3.44L12.45-3.44 12.45-31.1 5.25-31.1Q4.52-31.1 4.39-30.25L4.39-30.25 3.71-25.56 0.81-25.56 0.81-33.54 29.15-33.54ZM55.44-12.01L55.44-12.01Q55.44-8.47 53.98-5.6 52.51-2.73 49.84-1.06 47.17 0.61 43.5 0.61L43.5 0.61Q39.87 0.61 37.2-1.05 34.54-2.71 33.1-5.57 31.66-8.42 31.66-12.01L31.66-12.01Q31.66-15.58 33.12-18.46 34.57-21.34 37.27-23.02 39.96-24.71 43.65-24.71L43.65-24.71Q47.39-24.71 50.02-23 52.66-21.29 54.05-18.41 55.44-15.53 55.44-12.01ZM50.24-12.06L50.24-12.06Q50.24-14.79 49.52-17.16 48.8-19.53 47.32-21 45.85-22.46 43.6-22.46L43.6-22.46Q41.28-22.46 39.8-21 38.33-19.53 37.62-17.16 36.91-14.79 36.91-12.06L36.91-12.06Q36.91-9.35 37.63-6.97 38.35-4.59 39.83-3.13 41.31-1.66 43.55-1.66L43.55-1.66Q45.85-1.66 47.32-3.13 48.8-4.59 49.52-6.96 50.24-9.33 50.24-12.06ZM68.04-32.35L68.04-32.35Q68.04-31.08 67.16-30.16 66.28-29.25 65.01-29.25L65.01-29.25Q63.74-29.25 62.82-30.16 61.91-31.08 61.91-32.35L61.91-32.35Q61.91-33.64 62.82-34.52 63.74-35.4 65.01-35.4L65.01-35.4Q66.28-35.4 67.16-34.52 68.04-33.64 68.04-32.35ZM70.6-1.95L70.6 0 58.86 0 58.86-1.95 61.3-2.1Q62.35-2.17 62.35-3.2L62.35-3.2 62.35-21.04 58.91-21.04 58.91-22.8 65.01-24.71 66.99-24.71 66.99-3.2Q66.99-2.73 67.29-2.44 67.6-2.15 68.04-2.1L68.04-2.1 70.6-1.95ZM85.81-1.95L85.81 0 73.65 0 73.65-1.95 76.31-2.1Q76.65-2.1 77.03-2.47 77.41-2.83 77.41-3.15L77.41-3.15 77.41-33.25 73.6-33.25 73.6-34.91 80-36.84 82.05-36.84 82.05-3.15Q82.05-2.83 82.41-2.47 82.78-2.1 83.1-2.1L83.1-2.1 85.81-1.95ZM109.95-5.54L109.95-2.49Q107.85-1.2 105.42-0.29 102.99 0.61 100.45 0.61L100.45 0.61Q97.43 0.61 94.78-0.74 92.13-2.1 90.49-4.86 88.86-7.62 88.86-11.79L88.86-11.79Q88.86-15.7 90.37-18.6 91.88-21.51 94.55-23.11 97.21-24.71 100.6-24.71L100.6-24.71Q105.26-24.71 107.61-21.81 109.95-18.92 109.95-14.45L109.95-14.45Q109.95-14.21 109.95-13.81 109.95-13.4 109.9-13.06L109.9-13.06 93.69-13.06Q93.69-11.16 94.09-9.27 94.5-7.37 95.45-5.83 96.4-4.3 98.01-3.37 99.62-2.44 102.04-2.44L102.04-2.44Q104.19-2.44 106.23-3.43 108.27-4.42 109.95-5.54L109.95-5.54ZM93.96-15.31L104.95-15.31 104.95-16.41Q104.95-18.87 103.76-20.56 102.58-22.24 100.09-22.24L100.09-22.24Q97.62-22.24 95.89-20.39 94.16-18.53 93.96-15.31L93.96-15.31ZM130.7-23.95L130.7-18.99 128.75-18.99Q128.28-19.56 127.64-19.96 126.99-20.36 126.06-20.36L126.06-20.36Q124.87-20.36 123.61-19.53 122.35-18.7 121.06-17.26L121.06-17.26 121.06-3.2Q121.06-2.15 122.11-2.1L122.11-2.1 125.4-1.95 125.4 0 112.9 0 112.9-1.9 115.37-2.1Q115.81-2.15 116.11-2.44 116.42-2.73 116.42-3.2L116.42-3.2 116.42-20.56 112.8-20.56 112.8-22.19 119.01-24.1 121.06-24.1 121.06-19.65Q121.79-20.46 122.89-21.66 123.99-22.85 125.23-23.78 126.48-24.71 127.65-24.71L127.65-24.71Q128.43-24.71 129.33-24.46 130.24-24.22 130.7-23.95L130.7-23.95ZM149.4-7.25L149.4-7.25Q149.4-3.56 146.86-1.48 144.32 0.61 139.85 0.61L139.85 0.61Q137.56 0.61 135.62 0.13 133.68-0.34 132.92-0.66L132.92-0.66 132.92-7.3 135.46-7.3 136.07-3.05Q136.83-2.56 137.94-2.11 139.05-1.66 140.51-1.66L140.51-1.66Q142.66-1.66 143.83-2.86 145-4.05 145-5.54L145-5.54Q145-7.52 143.59-8.53 142.17-9.55 139.56-10.79L139.56-10.79 138.9-11.11Q136.17-12.4 134.71-13.81 133.26-15.21 133.26-17.46L133.26-17.46Q133.26-20.8 135.61-22.75 137.95-24.71 142.27-24.71L142.27-24.71Q144.47-24.71 146.19-24.3 147.91-23.9 148.67-23.56L148.67-23.56 148.67-17.65 146.05-17.65 145.66-21.14Q145.13-21.56 144.08-21.92 143.03-22.29 141.86-22.29L141.86-22.29Q139.8-22.29 138.8-21.35 137.8-20.41 137.8-18.95L137.8-18.95Q137.8-17.26 139.01-16.27 140.22-15.28 143.39-13.84L143.39-13.84Q146.01-12.65 147.7-11.17 149.4-9.69 149.4-7.25Z" opacity="1" transform="matrix(1,0,0,1,0,0)" fill="black" class="wordmark-text-0" id="SvgjsPath6627" stroke-width="7" stroke="black" stroke-linejoin="round"></path></svg></g></svg></g><g transform="matrix(1,0,0,1,111.41466098360658,88.82426519054523)"><svg viewBox="0 0 147.94271606557376 18.49100702203571" height="18.49100702203571" width="147.94271606557376"><g transform="matrix(1,0,0,1,0,0)"><svg width="147.94271606557376" viewBox="-2.7 -37.1 433.45 55.058823513628" height="18.49100702203571" data-palette-color="#135d66"><path d="M31.9 1.15L31.9 1.15Q31.65 1.15 31.65 0.6L31.65 0.6Q31.65 0.1 31.95-0.8L31.95-0.8Q32.45-2.25 33.73-4.7 35-7.15 36.73-10.15 38.45-13.15 40.43-16.35 42.4-19.55 44.33-22.53 46.25-25.5 47.88-27.9 49.5-30.3 50.58-31.7 51.65-33.1 51.9-33.1L51.9-33.1 52.35-33.1Q52.8-33.1 52.8-32.8L52.8-32.8Q52.8-32.5 52.25-31.8L52.25-31.8Q50.15-29.05 47.8-25.63 45.45-22.2 43.13-18.55 40.8-14.9 38.7-11.35 36.6-7.8 34.95-4.7 33.3-1.6 32.35 0.6L32.35 0.6Q32.1 1.15 31.9 1.15ZM10.8 7.2L10.8 7.2Q10.55 7.2 10.55 6.65L10.55 6.65Q10.55 6.15 10.85 5.25L10.85 5.25Q11.35 3.8 12.68 1.28 14-1.25 15.85-4.38 17.7-7.5 19.7-10.8L19.7-10.8Q18.6-10.65 17.53-10.5 16.45-10.35 15.45-10.15L15.45-10.15Q9-9.05 6.03-7.08 3.05-5.1 3.05-3.45L3.05-3.45Q3.05-2.45 4-1.7L4-1.7Q4.1-1.6 4.1-1.55L4.1-1.55Q4.1-1.5 3.9-1.5L3.9-1.5Q3.6-1.5 3.45-1.65L3.45-1.65Q1.3-3.25 1.3-5.55L1.3-5.55Q1.3-7.2 2.58-8.85 3.85-10.5 6.58-11.88 9.3-13.25 13.6-14L13.6-14Q15.7-14.4 17.88-14.6 20.05-14.8 22.2-14.75L22.2-14.75Q23.95-17.5 25.6-19.95 27.25-22.4 28.58-24.33 29.9-26.25 30.78-27.35 31.65-28.45 31.85-28.45L31.85-28.45 32.3-28.45Q32.75-28.45 32.75-28.15L32.75-28.15Q32.75-27.85 32.2-27.15L32.2-27.15Q30.3-24.6 28.05-21.38 25.8-18.15 23.55-14.7L23.55-14.7Q25.9-14.55 28.2-14.1L28.2-14.1Q29.1-13.9 30.3-13.55 31.5-13.2 32.68-12.68 33.85-12.15 34.7-11.35 35.55-10.55 35.7-9.45L35.7-9.45Q35.75-9.1 35.63-9.13 35.5-9.15 35.4-9.35L35.4-9.35Q35.2-9.95 34.08-10.3 32.95-10.65 31.73-10.83 30.5-11 29.9-11.05L29.9-11.05Q28.35-11.2 26.65-11.2L26.65-11.2Q23.9-11.2 21.1-10.9L21.1-10.9Q18.95-7.5 17-4.23 15.05-0.95 13.58 1.85 12.1 4.65 11.25 6.65L11.25 6.65Q11 7.2 10.8 7.2ZM43.35 0.05L43.35 0.05Q41.8 0.05 40.95-0.93 40.1-1.9 40.1-3.45L40.1-3.45Q40.1-4.9 40.87-6.65 41.65-8.4 43.35-10.2L43.35-10.2Q45.1-12.1 47.7-13.28 50.3-14.45 52.65-14.45L52.65-14.45Q54.55-14.45 55.9-13.63 57.25-12.8 57.7-11.55L57.7-11.55Q58.25-11.55 59.07-11.25 59.9-10.95 59.9-10.15L59.9-10.15Q59.9-9.6 59.35-8.9L59.35-8.9Q59-8.4 58.12-7.4 57.25-6.4 56.5-5.25L56.5-5.25Q55.9-4.35 55.55-3.58 55.2-2.8 55.2-2.25L55.2-2.25Q55.2-1.5 55.95-1.5L55.95-1.5Q56.8-1.5 58.5-2.45L58.5-2.45Q60.35-3.5 62.05-4.85 63.75-6.2 64.7-7L64.7-7Q64.95-7.2 65.05-7.2L65.05-7.2Q65.25-7.2 65.25-6.95L65.25-6.95Q65.25-6.65 65-6.4L65-6.4Q64.55-6 63.25-4.9 61.95-3.8 60.27-2.6 58.6-1.4 57-0.65L57-0.65Q56.2-0.3 55.52-0.13 54.85 0.05 54.3 0.05L54.3 0.05Q52.95 0.05 52.25-0.73 51.55-1.5 51.55-2.75L51.55-2.75Q51.55-3.25 51.7-3.8 51.85-4.35 52.05-4.9L52.05-4.9 52.4-5.75Q51.1-4.15 49.8-3.08 48.5-2 47.2-1.2L47.2-1.2Q46.1-0.55 45.12-0.25 44.15 0.05 43.35 0.05ZM44.9-1.25L44.9-1.25Q45.8-1.25 47.5-2.33 49.2-3.4 51.45-5.65L51.45-5.65Q51.75-5.95 52.57-6.73 53.4-7.5 54.35-8.47 55.3-9.45 55.97-10.43 56.65-11.4 56.65-12.05L56.65-12.05Q56.65-13 55-13L55-13Q53.55-13 51.52-11.88 49.5-10.75 47.65-8.55L47.65-8.55Q45.75-6.3 44.87-4.67 44-3.05 44-2.2L44-2.2Q44-1.25 44.9-1.25ZM71.9 0.05L71.9 0.05Q69.75 0.05 69-0.78 68.25-1.6 68.25-2.6L68.25-2.6Q68.25-3.9 69.25-5.35L69.25-5.35Q69.85-6.2 70.6-7.28 71.35-8.35 72-9.3 72.65-10.25 72.9-10.65L72.9-10.65Q73.25-11.15 73.32-11.33 73.4-11.5 73.4-11.7L73.4-11.7Q73.4-12 73.02-12.28 72.65-12.55 71.8-12.55L71.8-12.55Q71.55-12.55 71.37-12.53 71.2-12.5 71-12.5L71-12.5Q70.6-12.5 70.55-12.55L70.55-12.55 70.4-12.35Q69-10.5 67.4-8.72 65.8-6.95 63.9-5.45L63.9-5.45Q63.7-5.3 63.6-5.3L63.6-5.3Q63.4-5.3 63.4-5.5L63.4-5.5Q63.4-5.9 64-6.4L64-6.4Q65.55-7.7 67.05-9.33 68.55-10.95 69.75-12.75L69.75-12.75Q69.3-13.05 69.3-13.95L69.3-13.95Q69.3-15.3 70.15-16.85L70.15-16.85Q70.75-17.9 71.47-18.43 72.2-18.95 72.75-18.95L72.75-18.95Q73.8-18.95 73.8-17.7L73.8-17.7Q73.8-16.9 73.2-15.7L73.2-15.7Q72.95-15.1 72.22-14.18 71.5-13.25 70.8-12.85L70.8-12.85Q71.85-13.2 73.47-13.33 75.1-13.45 76.2-13.45L76.2-13.45Q76.85-13.45 77.8-13.08 78.75-12.7 78.75-11.75L78.75-11.75Q78.75-11.1 78.15-10.35L78.15-10.35Q78-10.15 77.35-9.4 76.7-8.65 75.92-7.6 75.15-6.55 74.5-5.5L74.5-5.5Q73.85-4.55 73.47-3.75 73.1-2.95 73.1-2.4L73.1-2.4Q73.1-1.6 74-1.6L74-1.6Q75.05-1.6 76.8-2.6 78.55-3.6 80.57-5.18 82.6-6.75 84.3-8.45L84.3-8.45Q84.5-8.65 84.65-8.65L84.65-8.65Q84.85-8.65 84.85-8.4L84.85-8.4Q84.85-8.1 84.6-7.85L84.6-7.85Q82.85-6.1 80.72-4.28 78.6-2.45 76.32-1.2 74.05 0.05 71.9 0.05ZM96.54 4.4L96.54 4.4Q95.74 3.7 95.37 2.63 94.99 1.55 94.99 0.2L94.99 0.2Q94.99-1.05 95.27-2.45 95.54-3.85 95.99-5.4L95.99-5.4Q95.04-4.2 93.87-2.95 92.69-1.7 91.64-0.8L91.64-0.8Q89.54 0.9 87.09 0.9L87.09 0.9Q85.24 0.9 83.94-0.28 82.64-1.45 82.64-3.95L82.64-3.95Q82.64-4.6 82.77-5.2 82.89-5.8 83.09-6.4L83.09-6.4Q82.79-6.15 82.52-5.9 82.24-5.65 81.99-5.45L81.99-5.45Q81.79-5.3 81.59-5.3L81.59-5.3Q81.34-5.3 81.34-5.55L81.34-5.55Q81.34-5.85 81.84-6.25L81.84-6.25Q82.49-6.8 83.32-7.75 84.14-8.7 85.14-9.8L85.14-9.8Q86.89-11.75 89.42-12.95 91.94-14.15 94.39-14.15L94.39-14.15Q96.49-14.15 97.47-13.4 98.44-12.65 98.44-11.6L98.44-11.6Q99.69-14.25 101.07-16.68 102.44-19.1 103.67-20.95 104.89-22.8 105.69-23.7L105.69-23.7Q106.24-24.35 107.07-24.65 107.89-24.95 108.74-24.95L108.74-24.95Q109.59-24.95 110.39-24.7 111.19-24.45 111.79-23.9L111.79-23.9Q111.29-23.6 110.22-22.48 109.14-21.35 107.77-19.7 106.39-18.05 104.92-16.15 103.44-14.25 102.14-12.35L102.14-12.35Q100.59-10.1 99.22-7.5 97.84-4.9 96.99-2.48 96.14-0.05 96.14 1.8L96.14 1.8Q96.14 3.3 96.79 4.1L96.79 4.1Q96.94 4.3 96.79 4.38 96.64 4.45 96.54 4.4ZM88.64-0.8L88.64-0.8Q89.54-0.8 91.04-1.73 92.54-2.65 94.74-4.9L94.74-4.9Q95.44-5.6 95.87-6.13 96.29-6.65 96.59-7.15L96.59-7.15Q96.84-7.85 97.09-8.5 97.34-9.15 97.64-9.8L97.64-9.8Q97.34-9.6 97.19-9.6L97.19-9.6Q96.79-9.6 96.79-10.05L96.79-10.05Q96.79-10.25 96.94-10.55L96.94-10.55Q97.44-11.4 97.44-12.05L97.44-12.05Q97.44-13.1 96.24-13.1L96.24-13.1Q95.59-13.1 94.49-12.7L94.49-12.7Q93.24-12.2 91.92-11.18 90.59-10.15 89.47-8.78 88.34-7.4 87.67-5.95 86.99-4.5 86.99-3.2L86.99-3.2Q86.99-2.25 87.37-1.53 87.74-0.8 88.64-0.8ZM119.49 0.05L119.49 0.05Q117.49 0.05 116.79-0.83 116.09-1.7 116.09-2.8L116.09-2.8Q116.09-4.5 116.86-5.65 117.64-6.8 118.89-8.25L118.89-8.25Q117.89-7.4 117.01-6.63 116.14-5.85 115.59-5.45L115.59-5.45Q115.44-5.3 115.29-5.3L115.29-5.3Q115.09-5.3 115.09-5.5L115.09-5.5Q115.09-5.9 115.69-6.4L115.69-6.4Q116.94-7.35 118.31-8.72 119.69-10.1 120.89-11.33 122.09-12.55 122.89-12.95L122.89-12.95Q123.44-13.25 123.94-13.38 124.44-13.5 124.79-13.5L124.79-13.5Q125.34-13.5 125.59-13.33 125.84-13.15 125.69-12.95L125.69-12.95Q124.84-12.05 123.99-10.73 123.14-9.4 122.44-7.95 121.74-6.5 121.31-5.18 120.89-3.85 120.89-3L120.89-3Q120.89-1.95 121.59-1.95L121.59-1.95Q122.14-1.95 122.86-2.45 123.59-2.95 124.24-3.55L124.24-3.55Q125.04-4.25 125.94-5.38 126.84-6.5 127.79-7.73 128.74-8.95 129.64-9.9L129.64-9.9Q130.39-10.75 131.21-11.33 132.04-11.9 132.99-11.9L132.99-11.9Q133.69-11.9 134.04-11.6 134.39-11.3 134.19-11.1L134.19-11.1Q133.19-10.05 132.36-8.6 131.54-7.15 131.06-5.68 130.59-4.2 130.59-3.05L130.59-3.05Q130.59-1.95 131.29-1.95L131.29-1.95Q131.84-1.95 132.56-2.45 133.29-2.95 133.99-3.55L133.99-3.55Q134.74-4.25 135.41-4.98 136.09-5.7 136.74-6.5L136.74-6.5Q136.84-9.1 137.41-10.78 137.99-12.45 138.79-13.3L138.79-13.3Q139.09-13.7 140.06-14 141.04-14.3 141.84-14.3L141.84-14.3Q142.79-14.3 142.79-13.8L142.79-13.8Q142.79-13.6 142.49-13.2L142.49-13.2Q141.94-12.55 141.16-11.48 140.39-10.4 139.74-9.28 139.09-8.15 138.84-7.3L138.84-7.3Q138.64-6.5 138.64-5.85L138.64-5.85Q138.64-4.9 139.29-4.9L139.29-4.9Q139.89-4.9 140.84-5.65L140.84-5.65Q140.99-5.8 141.44-6.15 141.89-6.5 142.34-6.9 142.79-7.3 142.99-7.5L142.99-7.5Q143.24-7.75 143.39-7.75L143.39-7.75Q143.54-7.75 143.54-7.5L143.54-7.5Q143.54-7.2 143.39-7.05L143.39-7.05Q142.94-6.6 142.19-5.9 141.44-5.2 141.04-4.9L141.04-4.9Q140.59-4.55 139.89-4.2 139.19-3.85 138.49-3.85L138.49-3.85Q137.89-3.85 137.41-4.25 136.94-4.65 136.84-5.6L136.84-5.6Q134.99-3.4 132.94-1.68 130.89 0.05 129.14 0.05L129.14 0.05Q127.14 0.05 126.46-0.83 125.79-1.7 125.79-2.75L125.79-2.75Q125.79-3.5 126.04-4.35L126.04-4.35Q124.39-2.55 122.66-1.25 120.94 0.05 119.49 0.05ZM145.99 0.45L145.99 0.45Q144.04 0.45 143.06-0.53 142.09-1.5 142.09-3.05L142.09-3.05Q142.09-4 142.34-4.9 142.59-5.8 142.89-6.5L142.89-6.5Q142.54-6.15 142.21-5.88 141.89-5.6 141.69-5.45L141.69-5.45Q141.49-5.3 141.34-5.3L141.34-5.3Q141.14-5.3 141.14-5.55L141.14-5.55Q141.14-5.9 141.64-6.35L141.64-6.35Q143.39-7.8 144.39-8.93 145.39-10.05 146.49-11L146.49-11Q148.34-12.6 150.44-13.5 152.54-14.4 154.64-14.4L154.64-14.4Q156.84-14.4 158.09-13.35 159.34-12.3 159.34-10.25L159.34-10.25Q159.34-9.1 158.66-7.6 157.99-6.1 156.54-4.5L156.54-4.5Q155.94-3.85 155.19-3.23 154.44-2.6 153.89-2.3L153.89-2.3Q156.34-2.55 158.49-4.03 160.64-5.5 162.34-6.95L162.34-6.95Q162.59-7.1 162.69-7.1L162.69-7.1Q162.94-7.1 162.94-6.85L162.94-6.85Q162.94-6.65 162.69-6.4L162.69-6.4Q160.54-4.35 158.06-2.95 155.59-1.55 152.59-1.6L152.59-1.6Q150.84-0.65 149.16-0.1 147.49 0.45 145.99 0.45ZM148.24-0.95L148.24-0.95Q148.94-0.95 149.74-1.2 150.54-1.45 151.34-1.85L151.34-1.85Q151.04-1.85 150.76-2.15 150.49-2.45 150.49-2.95L150.49-2.95Q150.49-3.95 151.24-5 151.99-6.05 153.09-6.8 154.19-7.55 155.24-7.55L155.24-7.55Q155.84-7.55 156.36-7.23 156.89-6.9 156.94-6.35L156.94-6.35Q157.79-7.3 158.11-8.4 158.44-9.5 158.44-10.45L158.44-10.45Q158.44-11.75 157.61-12.43 156.79-13.1 155.39-13.1L155.39-13.1Q154.04-13.1 152.41-12.15 150.79-11.2 149.36-9.7 147.94-8.2 147.01-6.45 146.09-4.7 146.09-3.1L146.09-3.1Q146.09-0.95 148.24-0.95ZM169.58 0.05L169.58 0.05Q167.43 0.05 166.68-0.78 165.93-1.6 165.93-2.6L165.93-2.6Q165.93-3.9 166.93-5.35L166.93-5.35Q167.53-6.2 168.28-7.28 169.03-8.35 169.68-9.3 170.33-10.25 170.58-10.65L170.58-10.65Q170.93-11.15 171.01-11.33 171.08-11.5 171.08-11.7L171.08-11.7Q171.08-12 170.71-12.28 170.33-12.55 169.48-12.55L169.48-12.55Q169.23-12.55 169.06-12.53 168.88-12.5 168.68-12.5L168.68-12.5Q168.28-12.5 168.23-12.55L168.23-12.55 168.08-12.35Q166.68-10.5 165.08-8.72 163.48-6.95 161.58-5.45L161.58-5.45Q161.38-5.3 161.28-5.3L161.28-5.3Q161.08-5.3 161.08-5.5L161.08-5.5Q161.08-5.9 161.68-6.4L161.68-6.4Q163.23-7.7 164.73-9.33 166.23-10.95 167.43-12.75L167.43-12.75Q166.98-13.05 166.98-13.95L166.98-13.95Q166.98-15.3 167.83-16.85L167.83-16.85Q168.43-17.9 169.16-18.43 169.88-18.95 170.43-18.95L170.43-18.95Q171.48-18.95 171.48-17.7L171.48-17.7Q171.48-16.9 170.88-15.7L170.88-15.7Q170.63-15.1 169.91-14.18 169.18-13.25 168.48-12.85L168.48-12.85Q169.53-13.2 171.16-13.33 172.78-13.45 173.88-13.45L173.88-13.45Q174.53-13.45 175.48-13.08 176.43-12.7 176.43-11.75L176.43-11.75Q176.43-11.1 175.83-10.35L175.83-10.35Q175.68-10.15 175.03-9.4 174.38-8.65 173.61-7.6 172.83-6.55 172.18-5.5L172.18-5.5Q171.53-4.55 171.16-3.75 170.78-2.95 170.78-2.4L170.78-2.4Q170.78-1.6 171.68-1.6L171.68-1.6Q172.73-1.6 174.48-2.6 176.23-3.6 178.26-5.18 180.28-6.75 181.98-8.45L181.98-8.45Q182.18-8.65 182.33-8.65L182.33-8.65Q182.53-8.65 182.53-8.4L182.53-8.4Q182.53-8.1 182.28-7.85L182.28-7.85Q180.53-6.1 178.41-4.28 176.28-2.45 174.01-1.2 171.73 0.05 169.58 0.05ZM181.98 3.95L181.98 3.95Q180.88 2.95 180.51 2.13 180.13 1.3 180.13-0.15L180.13-0.15Q180.13-1.65 180.56-3.5 180.98-5.35 181.78-7.35L181.78-7.35Q181.28-6.85 180.73-6.35 180.18-5.85 179.63-5.45L179.63-5.45Q179.48-5.3 179.33-5.3L179.33-5.3Q179.18-5.3 179.18-5.45L179.18-5.45Q179.18-5.8 179.78-6.4L179.78-6.4Q180.58-7.1 181.28-7.95 181.98-8.8 182.83-9.85L182.83-9.85Q185.33-15.4 188.43-19.85 191.53-24.3 195.93-28.4L195.93-28.4Q198.18-30.45 200.16-31.35 202.13-32.25 203.63-32.25L203.63-32.25Q205.13-32.25 205.98-31.45 206.83-30.65 206.83-29.35L206.83-29.35Q206.83-28.1 206.01-26.5 205.18-24.9 203.33-23.15L203.33-23.15Q202.03-21.9 200.23-20.58 198.43-19.25 196.53-18.1 194.63-16.95 192.98-16.2L192.98-16.2Q192.88-16.15 192.78-16.13 192.68-16.1 192.58-16.1L192.58-16.1Q192.23-16.1 192.23-16.35L192.23-16.35Q192.23-16.65 192.78-16.85L192.78-16.85Q194.33-17.55 196.21-18.75 198.08-19.95 199.83-21.35 201.58-22.75 202.78-24L202.78-24Q204.28-25.6 204.96-26.73 205.63-27.85 205.63-28.45L205.63-28.45Q205.63-29.2 204.78-29.2L204.78-29.2Q203.88-29.2 202.21-28.28 200.53-27.35 198.38-25.45L198.38-25.45Q195.73-23.1 193.16-20.05 190.58-17 188.46-14.03 186.33-11.05 184.93-8.75L184.93-8.75Q186.88-11.35 188.73-12.8 190.58-14.25 192.13-14.9L192.13-14.9Q193.43-15.4 194.58-15.4L194.58-15.4Q195.88-15.4 196.68-14.75 197.48-14.1 197.48-13.1L197.48-13.1Q197.48-12.1 196.81-10.85 196.13-9.6 194.53-8.4L194.53-8.4Q193.28-7.5 191.21-6.83 189.13-6.15 187.33-6.15L187.33-6.15Q186.28-6.15 185.53-6.45L185.53-6.45Q186.53-5.2 188.03-4.03 189.53-2.85 191.11-2.13 192.68-1.4 193.88-1.4L193.88-1.4Q194.73-1.4 195.43-1.85 196.13-2.3 196.13-2.95L196.13-2.95Q196.13-3.05 196.26-3.05 196.38-3.05 196.38-2.95L196.38-2.95Q196.38-2 195.61-1.4 194.83-0.8 193.73-0.55L193.73-0.55Q193.23-0.45 192.71-0.38 192.18-0.3 191.63-0.3L191.63-0.3Q189.58-0.3 187.81-1.03 186.03-1.75 184.76-2.83 183.48-3.9 182.93-4.9L182.93-4.9Q182.28-3.3 181.96-1.73 181.63-0.15 181.63 1.15L181.63 1.15Q181.63 2.9 182.23 3.65L182.23 3.65Q182.38 3.85 182.23 3.93 182.08 4 181.98 3.95ZM186.38-6.7L186.38-6.7Q187.63-6.7 189.36-7.3 191.08-7.9 192.18-8.75L192.18-8.75Q193.08-9.45 193.51-10.25 193.93-11.05 193.93-11.7L193.93-11.7Q193.93-12.4 193.51-12.88 193.08-13.35 192.28-13.35L192.28-13.35Q191.48-13.35 190.38-12.83 189.28-12.3 187.83-11L187.83-11Q187.03-10.25 186.21-9.45 185.38-8.65 184.68-7.8L184.68-7.8Q184.78-7.55 184.93-7.28 185.08-7 185.28-6.9L185.28-6.9Q185.48-6.8 185.78-6.75 186.08-6.7 186.38-6.7ZM213.88 0.05L213.88 0.05Q211.88 0.05 211.18-0.83 210.48-1.7 210.48-2.8L210.48-2.8Q210.48-4.5 211.25-5.65 212.03-6.8 213.28-8.25L213.28-8.25Q212.28-7.4 211.4-6.63 210.53-5.85 209.98-5.45L209.98-5.45Q209.83-5.3 209.68-5.3L209.68-5.3Q209.48-5.3 209.48-5.5L209.48-5.5Q209.48-5.9 210.08-6.4L210.08-6.4Q211.33-7.35 212.7-8.72 214.08-10.1 215.28-11.33 216.48-12.55 217.28-12.95L217.28-12.95Q217.83-13.25 218.33-13.38 218.83-13.5 219.18-13.5L219.18-13.5Q219.73-13.5 219.98-13.33 220.23-13.15 220.08-12.95L220.08-12.95Q219.23-12.05 218.38-10.73 217.53-9.4 216.83-7.95 216.13-6.5 215.7-5.18 215.28-3.85 215.28-3L215.28-3Q215.28-1.95 215.98-1.95L215.98-1.95Q216.53-1.95 217.25-2.45 217.98-2.95 218.63-3.55L218.63-3.55Q219.43-4.25 220.33-5.38 221.23-6.5 222.18-7.73 223.13-8.95 224.03-9.9L224.03-9.9Q224.78-10.75 225.6-11.33 226.43-11.9 227.38-11.9L227.38-11.9Q228.08-11.9 228.43-11.6 228.78-11.3 228.58-11.1L228.58-11.1Q227.58-10.05 226.75-8.6 225.93-7.15 225.45-5.68 224.98-4.2 224.98-3.05L224.98-3.05Q224.98-1.95 225.68-1.95L225.68-1.95Q226.23-1.95 226.95-2.45 227.68-2.95 228.38-3.55L228.38-3.55Q229.13-4.25 229.8-4.98 230.48-5.7 231.13-6.5L231.13-6.5Q231.23-9.1 231.8-10.78 232.38-12.45 233.18-13.3L233.18-13.3Q233.48-13.7 234.45-14 235.43-14.3 236.23-14.3L236.23-14.3Q237.18-14.3 237.18-13.8L237.18-13.8Q237.18-13.6 236.88-13.2L236.88-13.2Q236.33-12.55 235.55-11.48 234.78-10.4 234.13-9.28 233.48-8.15 233.23-7.3L233.23-7.3Q233.03-6.5 233.03-5.85L233.03-5.85Q233.03-4.9 233.68-4.9L233.68-4.9Q234.28-4.9 235.23-5.65L235.23-5.65Q235.38-5.8 235.83-6.15 236.28-6.5 236.73-6.9 237.18-7.3 237.38-7.5L237.38-7.5Q237.63-7.75 237.78-7.75L237.78-7.75Q237.93-7.75 237.93-7.5L237.93-7.5Q237.93-7.2 237.78-7.05L237.78-7.05Q237.33-6.6 236.58-5.9 235.83-5.2 235.43-4.9L235.43-4.9Q234.98-4.55 234.28-4.2 233.58-3.85 232.88-3.85L232.88-3.85Q232.28-3.85 231.8-4.25 231.33-4.65 231.23-5.6L231.23-5.6Q229.38-3.4 227.33-1.68 225.28 0.05 223.53 0.05L223.53 0.05Q221.53 0.05 220.85-0.83 220.18-1.7 220.18-2.75L220.18-2.75Q220.18-3.5 220.43-4.35L220.43-4.35Q218.78-2.55 217.05-1.25 215.33 0.05 213.88 0.05ZM247.67-15.3L247.67-15.3Q246.97-15.3 246.62-15.75 246.27-16.2 246.27-16.7L246.27-16.7Q246.27-17.7 247.22-18.68 248.17-19.65 249.22-19.65L249.22-19.65Q249.92-19.65 250.27-19.2 250.62-18.75 250.62-18.25L250.62-18.25Q250.62-17.2 249.7-16.25 248.77-15.3 247.67-15.3ZM240.02 0.05L240.02 0.05Q237.97 0.05 237.25-0.83 236.52-1.7 236.52-2.8L236.52-2.8Q236.52-3.7 236.82-4.53 237.12-5.35 237.32-5.7L237.32-5.7Q237.62-6.2 238.15-6.85 238.67-7.5 239.32-8.25L239.32-8.25Q238.32-7.4 237.45-6.6 236.57-5.8 236.02-5.4L236.02-5.4Q235.87-5.25 235.72-5.25L235.72-5.25Q235.52-5.25 235.52-5.5L235.52-5.5Q235.52-5.9 236.07-6.3L236.07-6.3Q237.37-7.4 238.6-8.7 239.82-10 240.92-11.13 242.02-12.25 242.87-12.7L242.87-12.7Q243.77-13.2 244.32-13.35 244.87-13.5 245.22-13.5L245.22-13.5Q245.77-13.5 246.02-13.33 246.27-13.15 246.12-12.95L246.12-12.95Q245.27-12.1 244.45-10.78 243.62-9.45 242.92-8 242.22-6.55 241.8-5.25 241.37-3.95 241.37-3.05L241.37-3.05Q241.37-1.8 242.37-1.8L242.37-1.8Q243.32-1.8 244.85-2.68 246.37-3.55 248.05-4.9 249.72-6.25 251.17-7.55L251.17-7.55Q251.37-7.75 251.52-7.75L251.52-7.75Q251.77-7.75 251.8-7.5 251.82-7.25 251.67-7.15L251.67-7.15Q250.02-5.6 247.95-3.93 245.87-2.25 243.8-1.1 241.72 0.05 240.02 0.05ZM254.87 0.25L254.87 0.25Q252.87 0.25 252.07-0.73 251.27-1.7 251.27-3L251.27-3Q251.27-4.25 251.75-5.65 252.22-7.05 252.82-8.3L252.82-8.3Q252.17-7.6 251.57-7.03 250.97-6.45 250.57-6.1L250.57-6.1Q250.37-5.95 250.17-5.95L250.17-5.95Q249.92-5.95 249.92-6.2L249.92-6.2Q249.92-6.45 250.22-6.65L250.22-6.65Q251.27-7.55 252.67-9.1 254.07-10.65 255.27-12.25L255.27-12.25Q256.27-13.55 257.67-15.5 259.07-17.45 260.52-19.63 261.97-21.8 263.02-23.6L263.02-23.6Q263.17-23.9 263.35-24.35 263.52-24.8 263.52-25.15L263.52-25.15Q263.52-25.65 263.12-25.65L263.12-25.65Q263.02-25.65 262.55-25.45 262.07-25.25 261.62-25.05 261.17-24.85 261.07-24.85L261.07-24.85Q260.67-24.85 261.12-25.3L261.12-25.3Q261.92-25.9 263.15-26.48 264.37-27.05 265.67-27.45 266.97-27.85 267.87-27.85L267.87-27.85Q269.97-27.85 269.97-26.5L269.97-26.5Q269.97-25.8 269.32-24.65L269.32-24.65Q268.77-23.75 267.72-22.53 266.67-21.3 265.4-19.93 264.12-18.55 262.92-17.23 261.72-15.9 260.92-14.9L260.92-14.9Q260.72-14.65 259.95-13.6 259.17-12.55 258.2-11.08 257.22-9.6 256.25-7.98 255.27-6.35 254.65-4.88 254.02-3.4 254.02-2.4L254.02-2.4Q254.02-1.05 255.32-1.05L255.32-1.05Q256.17-1.05 257.47-1.55L257.47-1.55Q258.72-2 260.1-2.93 261.47-3.85 262.8-4.9 264.12-5.95 265.15-6.9 266.17-7.85 266.67-8.35L266.67-8.35Q266.97-8.65 267.17-8.65L267.17-8.65Q267.37-8.65 267.37-8.4L267.37-8.4Q267.37-8.15 267.12-7.9L267.12-7.9Q266.32-7.05 264.95-5.7 263.57-4.35 261.9-2.98 260.22-1.6 258.42-0.68 256.62 0.25 254.87 0.25ZM269.57 0.25L269.57 0.25Q267.57 0.25 266.77-0.73 265.97-1.7 265.97-3L265.97-3Q265.97-4.25 266.44-5.65 266.92-7.05 267.52-8.3L267.52-8.3Q266.87-7.6 266.27-7.03 265.67-6.45 265.27-6.1L265.27-6.1Q265.07-5.95 264.87-5.95L264.87-5.95Q264.62-5.95 264.62-6.2L264.62-6.2Q264.62-6.45 264.92-6.65L264.92-6.65Q265.97-7.55 267.37-9.1 268.77-10.65 269.97-12.25L269.97-12.25Q270.97-13.55 272.37-15.5 273.77-17.45 275.22-19.63 276.67-21.8 277.72-23.6L277.72-23.6Q277.87-23.9 278.04-24.35 278.22-24.8 278.22-25.15L278.22-25.15Q278.22-25.65 277.82-25.65L277.82-25.65Q277.72-25.65 277.24-25.45 276.77-25.25 276.32-25.05 275.87-24.85 275.77-24.85L275.77-24.85Q275.37-24.85 275.82-25.3L275.82-25.3Q276.62-25.9 277.84-26.48 279.07-27.05 280.37-27.45 281.67-27.85 282.57-27.85L282.57-27.85Q284.67-27.85 284.67-26.5L284.67-26.5Q284.67-25.8 284.02-24.65L284.02-24.65Q283.47-23.75 282.42-22.53 281.37-21.3 280.09-19.93 278.82-18.55 277.62-17.23 276.42-15.9 275.62-14.9L275.62-14.9Q275.42-14.65 274.64-13.6 273.87-12.55 272.89-11.08 271.92-9.6 270.94-7.98 269.97-6.35 269.34-4.88 268.72-3.4 268.72-2.4L268.72-2.4Q268.72-1.05 270.02-1.05L270.02-1.05Q270.87-1.05 272.17-1.55L272.17-1.55Q273.42-2 274.79-2.93 276.17-3.85 277.49-4.9 278.82-5.95 279.84-6.9 280.87-7.85 281.37-8.35L281.37-8.35Q281.67-8.65 281.87-8.65L281.87-8.65Q282.07-8.65 282.07-8.4L282.07-8.4Q282.07-8.15 281.82-7.9L281.82-7.9Q281.02-7.05 279.64-5.7 278.27-4.35 276.59-2.98 274.92-1.6 273.12-0.68 271.32 0.25 269.57 0.25ZM287.06 13.9L287.06 13.9Q286.71 13.4 286.34 12.65 285.96 11.9 285.96 10.6L285.96 10.6Q285.96 9.55 286.71 7.58 287.46 5.6 288.69 3.1 289.91 0.6 291.44-2.08 292.96-4.75 294.51-7.15L294.51-7.15Q293.56-6.2 292.56-5.45L292.56-5.45Q292.36-5.3 292.26-5.3L292.26-5.3Q292.11-5.3 292.11-5.5L292.11-5.5Q292.11-5.6 292.24-5.85 292.36-6.1 292.66-6.35L292.66-6.35Q293.66-7.2 295.06-8.68 296.46-10.15 297.96-12.05L297.96-12.05Q299.11-13.5 299.96-14.63 300.81-15.75 301.31-16.25L301.31-16.25Q301.86-16.8 302.31-17.1 302.76-17.4 303.26-17.4L303.26-17.4Q303.81-17.4 304.54-17.13 305.26-16.85 305.91-16.15L305.91-16.15Q305.36-15.5 304.46-14.3 303.56-13.1 302.76-12L302.76-12Q303.91-13.35 305.81-14.4 307.71-15.45 309.36-15.45L309.36-15.45Q310.86-15.45 311.76-14.5 312.66-13.55 312.66-12L312.66-12Q312.66-10.3 311.71-8.28 310.76-6.25 309.16-4.35L309.16-4.35Q307.21-2.05 304.84-0.6 302.46 0.85 300.51 0.85L300.51 0.85Q299.11 0.85 298.31 0.05 297.51-0.75 297.51-2.3L297.51-2.3Q297.51-3.9 298.21-5.75L298.21-5.75Q296.86-4.05 295.34-1.85 293.81 0.35 292.36 2.65 290.91 4.95 289.74 7.05 288.56 9.15 287.86 10.75 287.16 12.35 287.16 13.15L287.16 13.15Q287.16 13.55 287.26 13.65L287.26 13.65Q287.41 13.85 287.29 13.93 287.16 14 287.06 13.9ZM300.26 0.3L300.26 0.3Q301.71 0.3 303.14-0.63 304.56-1.55 305.71-3.05 306.86-4.55 307.56-6.25 308.26-7.95 308.26-9.45L308.26-9.45Q308.26-10.8 307.64-11.55 307.01-12.3 305.91-12.3L305.91-12.3Q304.61-12.3 302.96-11.18 301.31-10.05 299.96-7.95L299.96-7.95Q298.96-6.5 298.54-5.03 298.11-3.55 298.11-2.4L298.11-2.4Q298.11-0.95 298.71-0.33 299.31 0.3 300.26 0.3ZM315.81 0.05L315.81 0.05Q314.26 0.05 313.41-0.93 312.56-1.9 312.56-3.45L312.56-3.45Q312.56-4.9 313.34-6.65 314.11-8.4 315.81-10.2L315.81-10.2Q317.56-12.1 320.16-13.28 322.76-14.45 325.11-14.45L325.11-14.45Q327.01-14.45 328.36-13.63 329.71-12.8 330.16-11.55L330.16-11.55Q330.71-11.55 331.54-11.25 332.36-10.95 332.36-10.15L332.36-10.15Q332.36-9.6 331.81-8.9L331.81-8.9Q331.46-8.4 330.59-7.4 329.71-6.4 328.96-5.25L328.96-5.25Q328.36-4.35 328.01-3.58 327.66-2.8 327.66-2.25L327.66-2.25Q327.66-1.5 328.41-1.5L328.41-1.5Q329.26-1.5 330.96-2.45L330.96-2.45Q332.81-3.5 334.51-4.85 336.21-6.2 337.16-7L337.16-7Q337.41-7.2 337.51-7.2L337.51-7.2Q337.71-7.2 337.71-6.95L337.71-6.95Q337.71-6.65 337.46-6.4L337.46-6.4Q337.01-6 335.71-4.9 334.41-3.8 332.74-2.6 331.06-1.4 329.46-0.65L329.46-0.65Q328.66-0.3 327.99-0.13 327.31 0.05 326.76 0.05L326.76 0.05Q325.41 0.05 324.71-0.73 324.01-1.5 324.01-2.75L324.01-2.75Q324.01-3.25 324.16-3.8 324.31-4.35 324.51-4.9L324.51-4.9 324.86-5.75Q323.56-4.15 322.26-3.08 320.96-2 319.66-1.2L319.66-1.2Q318.56-0.55 317.59-0.25 316.61 0.05 315.81 0.05ZM317.36-1.25L317.36-1.25Q318.26-1.25 319.96-2.33 321.66-3.4 323.91-5.65L323.91-5.65Q324.21-5.95 325.04-6.73 325.86-7.5 326.81-8.47 327.76-9.45 328.44-10.43 329.11-11.4 329.11-12.05L329.11-12.05Q329.11-13 327.46-13L327.46-13Q326.01-13 323.99-11.88 321.96-10.75 320.11-8.55L320.11-8.55Q318.21-6.3 317.34-4.67 316.46-3.05 316.46-2.2L316.46-2.2Q316.46-1.25 317.36-1.25ZM333.46 13.45L333.46 13.45Q331.06 13.45 329.03 12.73 327.01 12 325.66 10.45L325.66 10.45Q324.31 8.9 323.86 6.3L323.86 6.3Q323.76 5.9 324.06 5.9L324.06 5.9Q324.26 5.9 324.36 6.25L324.36 6.25Q324.91 9.05 327.08 10.8 329.26 12.55 332.06 12.55L332.06 12.55Q334.66 12.55 337.31 11.18 339.96 9.8 342.46 7.43 344.96 5.05 347.16 2.05L347.16 2.05Q349.51-1.15 351.43-4.6 353.36-8.05 355.16-11.55L355.16-11.55Q354.51-10.6 353.81-9.6 353.11-8.6 352.41-7.75L352.41-7.75Q351.06-6.05 349.33-4.28 347.61-2.5 345.91-1.28 344.21-0.05 342.81-0.05L342.81-0.05Q341.71-0.05 340.98-0.65 340.26-1.25 340.26-2.5L340.26-2.5Q340.26-3.6 340.66-4.53 341.06-5.45 341.56-6.25L341.56-6.25Q342.41-7.65 343.61-9.1 344.81-10.55 345.71-11.55L345.71-11.55Q346.26-12.2 346.26-12.6L346.26-12.6Q346.26-13.1 345.71-13.1L345.71-13.1Q345.06-13.1 344.06-12.3L344.06-12.3Q342.86-11.45 341.61-10.28 340.36-9.1 339.26-8.05 338.16-7 337.46-6.4L337.46-6.4Q337.11-6.15 336.96-6.15L336.96-6.15Q336.76-6.15 336.76-6.35L336.76-6.35Q336.76-6.65 337.11-6.95L337.11-6.95Q338.11-7.8 339.23-8.95 340.36-10.1 341.48-11.23 342.61-12.35 343.56-13.05L343.56-13.05Q344.31-13.65 345.11-13.93 345.91-14.2 346.61-14.2L346.61-14.2Q347.81-14.2 348.63-13.5 349.46-12.8 349.46-11.55L349.46-11.55Q349.46-10.6 348.96-9.55L348.96-9.55Q348.36-8.3 347.43-7.08 346.51-5.85 345.66-4.7L345.66-4.7Q345.01-3.75 344.71-3.15 344.41-2.55 344.41-2.3L344.41-2.3Q344.41-1.85 344.81-1.85L344.81-1.85Q345.21-1.85 345.98-2.3 346.76-2.75 347.56-3.45L347.56-3.45Q348.91-4.7 350.53-6.53 352.16-8.35 353.71-10.35 355.26-12.35 356.41-14.05L356.41-14.05Q357.11-15.7 357.91-16.95 358.71-18.2 359.96-18.2L359.96-18.2Q360.66-18.2 361.08-17.8 361.51-17.4 361.51-17L361.51-17Q361.51-16.65 361.21-16.43 360.91-16.2 360.21-16.25L360.21-16.25Q359.66-16.35 358.96-16.05 358.26-15.75 357.51-14.15L357.51-14.15Q356.71-12.35 355.98-9.95 355.26-7.55 354.26-4.8 353.26-2.05 351.63 0.88 350.01 3.8 347.31 6.65L347.31 6.65Q344.66 9.45 341.03 11.45 337.41 13.45 333.46 13.45ZM376.25 0.45L376.25 0.45Q374.3 0.45 373.33-0.53 372.35-1.5 372.35-3.05L372.35-3.05Q372.35-4 372.6-4.9 372.85-5.8 373.15-6.5L373.15-6.5Q372.8-6.15 372.48-5.88 372.15-5.6 371.95-5.45L371.95-5.45Q371.75-5.3 371.6-5.3L371.6-5.3Q371.4-5.3 371.4-5.55L371.4-5.55Q371.4-5.9 371.9-6.35L371.9-6.35Q373.65-7.8 374.65-8.93 375.65-10.05 376.75-11L376.75-11Q378.6-12.6 380.7-13.5 382.8-14.4 384.9-14.4L384.9-14.4Q387.1-14.4 388.35-13.35 389.6-12.3 389.6-10.25L389.6-10.25Q389.6-9.1 388.93-7.6 388.25-6.1 386.8-4.5L386.8-4.5Q386.2-3.85 385.45-3.23 384.7-2.6 384.15-2.3L384.15-2.3Q386.6-2.55 388.75-4.03 390.9-5.5 392.6-6.95L392.6-6.95Q392.85-7.1 392.95-7.1L392.95-7.1Q393.2-7.1 393.2-6.85L393.2-6.85Q393.2-6.65 392.95-6.4L392.95-6.4Q390.8-4.35 388.33-2.95 385.85-1.55 382.85-1.6L382.85-1.6Q381.1-0.65 379.43-0.1 377.75 0.45 376.25 0.45ZM378.5-0.95L378.5-0.95Q379.2-0.95 380-1.2 380.8-1.45 381.6-1.85L381.6-1.85Q381.3-1.85 381.03-2.15 380.75-2.45 380.75-2.95L380.75-2.95Q380.75-3.95 381.5-5 382.25-6.05 383.35-6.8 384.45-7.55 385.5-7.55L385.5-7.55Q386.1-7.55 386.63-7.23 387.15-6.9 387.2-6.35L387.2-6.35Q388.05-7.3 388.38-8.4 388.7-9.5 388.7-10.45L388.7-10.45Q388.7-11.75 387.88-12.43 387.05-13.1 385.65-13.1L385.65-13.1Q384.3-13.1 382.68-12.15 381.05-11.2 379.63-9.7 378.2-8.2 377.28-6.45 376.35-4.7 376.35-3.1L376.35-3.1Q376.35-0.95 378.5-0.95ZM393.05 4.45L393.05 4.45Q392 3.6 391.6 2.48 391.2 1.35 391.2 0.25L391.2 0.25Q391.2-1.6 392.03-4.5 392.85-7.4 394.25-10.6L394.25-10.6Q394.15-10.55 394.05-10.55L394.05-10.55Q393.8-10.55 393.53-11.13 393.25-11.7 393.25-12.35L393.25-12.35Q393.25-13.05 393.73-13.75 394.2-14.45 395.6-14.8L395.6-14.8Q395.9-14.9 396.4-15L396.4-15Q398-18 399.85-20.48 401.7-22.95 403.55-24.2L403.55-24.2Q404.7-25 405.98-25.38 407.25-25.75 408.5-25.75L408.5-25.75Q410-25.75 411.45-25.2 412.9-24.65 413.85-23.58 414.8-22.5 414.8-20.9L414.8-20.9 414.8-20.85Q414.8-20.65 414.65-20.65 414.5-20.65 414.4-20.9L414.4-20.9Q414.05-22.25 413.05-22.83 412.05-23.4 410.85-23.4L410.85-23.4Q409.9-23.4 408.95-23.1 408-22.8 407.3-22.35L407.3-22.35Q405.5-21.2 403.7-19.18 401.9-17.15 400.45-15.15L400.45-15.15Q401.8-15.05 402.88-14.7 403.95-14.35 404.45-13.95L404.45-13.95Q405.15-13.45 405.5-12.9L405.5-12.9Q405.7-12.55 405.7-12.3L405.7-12.3Q405.7-12 405.45-12L405.45-12Q405.3-12 405-12.15L405-12.15Q404.1-12.75 402.2-12.75L402.2-12.75Q401.4-12.75 400.45-12.63 399.5-12.5 398.45-12.2L398.45-12.2 397.8-11.25Q396.2-8.9 395.05-6.43 393.9-3.95 393.3-1.75 392.7 0.45 392.7 2.05L392.7 2.05Q392.7 3.45 393.3 4.2L393.3 4.2Q393.45 4.4 393.3 4.48 393.15 4.55 393.05 4.45ZM405 4.45L405 4.45Q403.95 3.6 403.55 2.48 403.15 1.35 403.15 0.25L403.15 0.25Q403.15-1.6 403.97-4.5 404.8-7.4 406.2-10.6L406.2-10.6Q406.1-10.55 406-10.55L406-10.55Q405.75-10.55 405.47-11.13 405.2-11.7 405.2-12.35L405.2-12.35Q405.2-13.05 405.67-13.75 406.15-14.45 407.55-14.8L407.55-14.8Q407.85-14.9 408.35-15L408.35-15Q409.95-18 411.8-20.48 413.65-22.95 415.5-24.2L415.5-24.2Q416.65-25 417.92-25.38 419.2-25.75 420.45-25.75L420.45-25.75Q421.95-25.75 423.4-25.2 424.85-24.65 425.8-23.58 426.75-22.5 426.75-20.9L426.75-20.9 426.75-20.85Q426.75-20.65 426.6-20.65 426.45-20.65 426.35-20.9L426.35-20.9Q426-22.25 425-22.83 424-23.4 422.8-23.4L422.8-23.4Q421.85-23.4 420.9-23.1 419.95-22.8 419.25-22.35L419.25-22.35Q417.45-21.2 415.65-19.18 413.85-17.15 412.4-15.15L412.4-15.15Q413.75-15.05 414.82-14.7 415.9-14.35 416.4-13.95L416.4-13.95Q417.1-13.45 417.45-12.9L417.45-12.9Q417.65-12.55 417.65-12.3L417.65-12.3Q417.65-12 417.4-12L417.4-12Q417.25-12 416.95-12.15L416.95-12.15Q416.05-12.75 414.15-12.75L414.15-12.75Q413.35-12.75 412.4-12.63 411.45-12.5 410.4-12.2L410.4-12.2 409.75-11.25Q408.15-8.9 407-6.43 405.85-3.95 405.25-1.75 404.65 0.45 404.65 2.05L404.65 2.05Q404.65 3.45 405.25 4.2L405.25 4.2Q405.4 4.4 405.25 4.48 405.1 4.55 405 4.45Z" opacity="1" transform="matrix(1,0,0,1,0,0)" fill="black" class="slogan-text-1" id="SvgjsPath6626" stroke-width="7" stroke="black" stroke-linejoin="round"></path></svg></g></svg></g></svg></g></svg></g></svg></g></svg></g></svg></g></mask><g transform="matrix(1,0,0,1,68.08131147540982,69.94236389370951)"><svg viewBox="0 0 259.35737704918034 107.31527221258095" height="107.31527221258095" width="259.35737704918034"><g><svg viewBox="0 0 259.35737704918034 107.31527221258095" height="107.31527221258095" width="259.35737704918034"><g><svg viewBox="0 0 259.35737704918034 107.31527221258095" height="107.31527221258095" width="259.35737704918034"><g><svg viewBox="0 0 259.35737704918034 107.31527221258095" height="107.31527221258095" width="259.35737704918034"><g id="textblocktransform"><svg viewBox="0 0 259.35737704918034 107.31527221258095" height="107.31527221258095" width="259.35737704918034" id="textblock"><g><svg viewBox="0 0 259.35737704918034 74.0881562950653" height="74.0881562950653" width="259.35737704918034"><g transform="matrix(1,0,0,1,0,0)"><svg width="259.35737704918034" viewBox="-3.19 -40.84 156.59 45.45" height="74.0881562950653" data-palette-color="#135d66"><path d="M29.15-33.54L29.15-25.56 26.2-25.56 25.49-30.25Q25.32-31.1 24.66-31.1L24.66-31.1 17.5-31.1 17.5-3.44Q17.5-3.08 17.76-2.73 18.02-2.39 18.55-2.34L18.55-2.34 21.75-2.15 21.75 0 8.2 0 8.2-2.15 11.4-2.34Q11.94-2.39 12.19-2.73 12.45-3.08 12.45-3.44L12.45-3.44 12.45-31.1 5.25-31.1Q4.52-31.1 4.39-30.25L4.39-30.25 3.71-25.56 0.81-25.56 0.81-33.54 29.15-33.54ZM55.44-12.01L55.44-12.01Q55.44-8.47 53.98-5.6 52.51-2.73 49.84-1.06 47.17 0.61 43.5 0.61L43.5 0.61Q39.87 0.61 37.2-1.05 34.54-2.71 33.1-5.57 31.66-8.42 31.66-12.01L31.66-12.01Q31.66-15.58 33.12-18.46 34.57-21.34 37.27-23.02 39.96-24.71 43.65-24.71L43.65-24.71Q47.39-24.71 50.02-23 52.66-21.29 54.05-18.41 55.44-15.53 55.44-12.01ZM50.24-12.06L50.24-12.06Q50.24-14.79 49.52-17.16 48.8-19.53 47.32-21 45.85-22.46 43.6-22.46L43.6-22.46Q41.28-22.46 39.8-21 38.33-19.53 37.62-17.16 36.91-14.79 36.91-12.06L36.91-12.06Q36.91-9.35 37.63-6.97 38.35-4.59 39.83-3.13 41.31-1.66 43.55-1.66L43.55-1.66Q45.85-1.66 47.32-3.13 48.8-4.59 49.52-6.96 50.24-9.33 50.24-12.06ZM68.04-32.35L68.04-32.35Q68.04-31.08 67.16-30.16 66.28-29.25 65.01-29.25L65.01-29.25Q63.74-29.25 62.82-30.16 61.91-31.08 61.91-32.35L61.91-32.35Q61.91-33.64 62.82-34.52 63.74-35.4 65.01-35.4L65.01-35.4Q66.28-35.4 67.16-34.52 68.04-33.64 68.04-32.35ZM70.6-1.95L70.6 0 58.86 0 58.86-1.95 61.3-2.1Q62.35-2.17 62.35-3.2L62.35-3.2 62.35-21.04 58.91-21.04 58.91-22.8 65.01-24.71 66.99-24.71 66.99-3.2Q66.99-2.73 67.29-2.44 67.6-2.15 68.04-2.1L68.04-2.1 70.6-1.95ZM85.81-1.95L85.81 0 73.65 0 73.65-1.95 76.31-2.1Q76.65-2.1 77.03-2.47 77.41-2.83 77.41-3.15L77.41-3.15 77.41-33.25 73.6-33.25 73.6-34.91 80-36.84 82.05-36.84 82.05-3.15Q82.05-2.83 82.41-2.47 82.78-2.1 83.1-2.1L83.1-2.1 85.81-1.95ZM109.95-5.54L109.95-2.49Q107.85-1.2 105.42-0.29 102.99 0.61 100.45 0.61L100.45 0.61Q97.43 0.61 94.78-0.74 92.13-2.1 90.49-4.86 88.86-7.62 88.86-11.79L88.86-11.79Q88.86-15.7 90.37-18.6 91.88-21.51 94.55-23.11 97.21-24.71 100.6-24.71L100.6-24.71Q105.26-24.71 107.61-21.81 109.95-18.92 109.95-14.45L109.95-14.45Q109.95-14.21 109.95-13.81 109.95-13.4 109.9-13.06L109.9-13.06 93.69-13.06Q93.69-11.16 94.09-9.27 94.5-7.37 95.45-5.83 96.4-4.3 98.01-3.37 99.62-2.44 102.04-2.44L102.04-2.44Q104.19-2.44 106.23-3.43 108.27-4.42 109.95-5.54L109.95-5.54ZM93.96-15.31L104.95-15.31 104.95-16.41Q104.95-18.87 103.76-20.56 102.58-22.24 100.09-22.24L100.09-22.24Q97.62-22.24 95.89-20.39 94.16-18.53 93.96-15.31L93.96-15.31ZM130.7-23.95L130.7-18.99 128.75-18.99Q128.28-19.56 127.64-19.96 126.99-20.36 126.06-20.36L126.06-20.36Q124.87-20.36 123.61-19.53 122.35-18.7 121.06-17.26L121.06-17.26 121.06-3.2Q121.06-2.15 122.11-2.1L122.11-2.1 125.4-1.95 125.4 0 112.9 0 112.9-1.9 115.37-2.1Q115.81-2.15 116.11-2.44 116.42-2.73 116.42-3.2L116.42-3.2 116.42-20.56 112.8-20.56 112.8-22.19 119.01-24.1 121.06-24.1 121.06-19.65Q121.79-20.46 122.89-21.66 123.99-22.85 125.23-23.78 126.48-24.71 127.65-24.71L127.65-24.71Q128.43-24.71 129.33-24.46 130.24-24.22 130.7-23.95L130.7-23.95ZM149.4-7.25L149.4-7.25Q149.4-3.56 146.86-1.48 144.32 0.61 139.85 0.61L139.85 0.61Q137.56 0.61 135.62 0.13 133.68-0.34 132.92-0.66L132.92-0.66 132.92-7.3 135.46-7.3 136.07-3.05Q136.83-2.56 137.94-2.11 139.05-1.66 140.51-1.66L140.51-1.66Q142.66-1.66 143.83-2.86 145-4.05 145-5.54L145-5.54Q145-7.52 143.59-8.53 142.17-9.55 139.56-10.79L139.56-10.79 138.9-11.11Q136.17-12.4 134.71-13.81 133.26-15.21 133.26-17.46L133.26-17.46Q133.26-20.8 135.61-22.75 137.95-24.71 142.27-24.71L142.27-24.71Q144.47-24.71 146.19-24.3 147.91-23.9 148.67-23.56L148.67-23.56 148.67-17.65 146.05-17.65 145.66-21.14Q145.13-21.56 144.08-21.92 143.03-22.29 141.86-22.29L141.86-22.29Q139.8-22.29 138.8-21.35 137.8-20.41 137.8-18.95L137.8-18.95Q137.8-17.26 139.01-16.27 140.22-15.28 143.39-13.84L143.39-13.84Q146.01-12.65 147.7-11.17 149.4-9.69 149.4-7.25Z" opacity="1" transform="matrix(1,0,0,1,0,0)" fill="#135d66" class="wordmark-text-0" data-fill-palette-color="primary" id="text-0"></path></svg></g></svg></g><g transform="matrix(1,0,0,1,111.41466098360658,88.82426519054523)"><svg viewBox="0 0 147.94271606557376 18.49100702203571" height="18.49100702203571" width="147.94271606557376"><g transform="matrix(1,0,0,1,0,0)"><svg width="147.94271606557376" viewBox="-2.7 -37.1 433.45 55.058823513628" height="18.49100702203571" data-palette-color="#135d66"><path d="M31.9 1.15L31.9 1.15Q31.65 1.15 31.65 0.6L31.65 0.6Q31.65 0.1 31.95-0.8L31.95-0.8Q32.45-2.25 33.73-4.7 35-7.15 36.73-10.15 38.45-13.15 40.43-16.35 42.4-19.55 44.33-22.53 46.25-25.5 47.88-27.9 49.5-30.3 50.58-31.7 51.65-33.1 51.9-33.1L51.9-33.1 52.35-33.1Q52.8-33.1 52.8-32.8L52.8-32.8Q52.8-32.5 52.25-31.8L52.25-31.8Q50.15-29.05 47.8-25.63 45.45-22.2 43.13-18.55 40.8-14.9 38.7-11.35 36.6-7.8 34.95-4.7 33.3-1.6 32.35 0.6L32.35 0.6Q32.1 1.15 31.9 1.15ZM10.8 7.2L10.8 7.2Q10.55 7.2 10.55 6.65L10.55 6.65Q10.55 6.15 10.85 5.25L10.85 5.25Q11.35 3.8 12.68 1.28 14-1.25 15.85-4.38 17.7-7.5 19.7-10.8L19.7-10.8Q18.6-10.65 17.53-10.5 16.45-10.35 15.45-10.15L15.45-10.15Q9-9.05 6.03-7.08 3.05-5.1 3.05-3.45L3.05-3.45Q3.05-2.45 4-1.7L4-1.7Q4.1-1.6 4.1-1.55L4.1-1.55Q4.1-1.5 3.9-1.5L3.9-1.5Q3.6-1.5 3.45-1.65L3.45-1.65Q1.3-3.25 1.3-5.55L1.3-5.55Q1.3-7.2 2.58-8.85 3.85-10.5 6.58-11.88 9.3-13.25 13.6-14L13.6-14Q15.7-14.4 17.88-14.6 20.05-14.8 22.2-14.75L22.2-14.75Q23.95-17.5 25.6-19.95 27.25-22.4 28.58-24.33 29.9-26.25 30.78-27.35 31.65-28.45 31.85-28.45L31.85-28.45 32.3-28.45Q32.75-28.45 32.75-28.15L32.75-28.15Q32.75-27.85 32.2-27.15L32.2-27.15Q30.3-24.6 28.05-21.38 25.8-18.15 23.55-14.7L23.55-14.7Q25.9-14.55 28.2-14.1L28.2-14.1Q29.1-13.9 30.3-13.55 31.5-13.2 32.68-12.68 33.85-12.15 34.7-11.35 35.55-10.55 35.7-9.45L35.7-9.45Q35.75-9.1 35.63-9.13 35.5-9.15 35.4-9.35L35.4-9.35Q35.2-9.95 34.08-10.3 32.95-10.65 31.73-10.83 30.5-11 29.9-11.05L29.9-11.05Q28.35-11.2 26.65-11.2L26.65-11.2Q23.9-11.2 21.1-10.9L21.1-10.9Q18.95-7.5 17-4.23 15.05-0.95 13.58 1.85 12.1 4.65 11.25 6.65L11.25 6.65Q11 7.2 10.8 7.2ZM43.35 0.05L43.35 0.05Q41.8 0.05 40.95-0.93 40.1-1.9 40.1-3.45L40.1-3.45Q40.1-4.9 40.87-6.65 41.65-8.4 43.35-10.2L43.35-10.2Q45.1-12.1 47.7-13.28 50.3-14.45 52.65-14.45L52.65-14.45Q54.55-14.45 55.9-13.63 57.25-12.8 57.7-11.55L57.7-11.55Q58.25-11.55 59.07-11.25 59.9-10.95 59.9-10.15L59.9-10.15Q59.9-9.6 59.35-8.9L59.35-8.9Q59-8.4 58.12-7.4 57.25-6.4 56.5-5.25L56.5-5.25Q55.9-4.35 55.55-3.58 55.2-2.8 55.2-2.25L55.2-2.25Q55.2-1.5 55.95-1.5L55.95-1.5Q56.8-1.5 58.5-2.45L58.5-2.45Q60.35-3.5 62.05-4.85 63.75-6.2 64.7-7L64.7-7Q64.95-7.2 65.05-7.2L65.05-7.2Q65.25-7.2 65.25-6.95L65.25-6.95Q65.25-6.65 65-6.4L65-6.4Q64.55-6 63.25-4.9 61.95-3.8 60.27-2.6 58.6-1.4 57-0.65L57-0.65Q56.2-0.3 55.52-0.13 54.85 0.05 54.3 0.05L54.3 0.05Q52.95 0.05 52.25-0.73 51.55-1.5 51.55-2.75L51.55-2.75Q51.55-3.25 51.7-3.8 51.85-4.35 52.05-4.9L52.05-4.9 52.4-5.75Q51.1-4.15 49.8-3.08 48.5-2 47.2-1.2L47.2-1.2Q46.1-0.55 45.12-0.25 44.15 0.05 43.35 0.05ZM44.9-1.25L44.9-1.25Q45.8-1.25 47.5-2.33 49.2-3.4 51.45-5.65L51.45-5.65Q51.75-5.95 52.57-6.73 53.4-7.5 54.35-8.47 55.3-9.45 55.97-10.43 56.65-11.4 56.65-12.05L56.65-12.05Q56.65-13 55-13L55-13Q53.55-13 51.52-11.88 49.5-10.75 47.65-8.55L47.65-8.55Q45.75-6.3 44.87-4.67 44-3.05 44-2.2L44-2.2Q44-1.25 44.9-1.25ZM71.9 0.05L71.9 0.05Q69.75 0.05 69-0.78 68.25-1.6 68.25-2.6L68.25-2.6Q68.25-3.9 69.25-5.35L69.25-5.35Q69.85-6.2 70.6-7.28 71.35-8.35 72-9.3 72.65-10.25 72.9-10.65L72.9-10.65Q73.25-11.15 73.32-11.33 73.4-11.5 73.4-11.7L73.4-11.7Q73.4-12 73.02-12.28 72.65-12.55 71.8-12.55L71.8-12.55Q71.55-12.55 71.37-12.53 71.2-12.5 71-12.5L71-12.5Q70.6-12.5 70.55-12.55L70.55-12.55 70.4-12.35Q69-10.5 67.4-8.72 65.8-6.95 63.9-5.45L63.9-5.45Q63.7-5.3 63.6-5.3L63.6-5.3Q63.4-5.3 63.4-5.5L63.4-5.5Q63.4-5.9 64-6.4L64-6.4Q65.55-7.7 67.05-9.33 68.55-10.95 69.75-12.75L69.75-12.75Q69.3-13.05 69.3-13.95L69.3-13.95Q69.3-15.3 70.15-16.85L70.15-16.85Q70.75-17.9 71.47-18.43 72.2-18.95 72.75-18.95L72.75-18.95Q73.8-18.95 73.8-17.7L73.8-17.7Q73.8-16.9 73.2-15.7L73.2-15.7Q72.95-15.1 72.22-14.18 71.5-13.25 70.8-12.85L70.8-12.85Q71.85-13.2 73.47-13.33 75.1-13.45 76.2-13.45L76.2-13.45Q76.85-13.45 77.8-13.08 78.75-12.7 78.75-11.75L78.75-11.75Q78.75-11.1 78.15-10.35L78.15-10.35Q78-10.15 77.35-9.4 76.7-8.65 75.92-7.6 75.15-6.55 74.5-5.5L74.5-5.5Q73.85-4.55 73.47-3.75 73.1-2.95 73.1-2.4L73.1-2.4Q73.1-1.6 74-1.6L74-1.6Q75.05-1.6 76.8-2.6 78.55-3.6 80.57-5.18 82.6-6.75 84.3-8.45L84.3-8.45Q84.5-8.65 84.65-8.65L84.65-8.65Q84.85-8.65 84.85-8.4L84.85-8.4Q84.85-8.1 84.6-7.85L84.6-7.85Q82.85-6.1 80.72-4.28 78.6-2.45 76.32-1.2 74.05 0.05 71.9 0.05ZM96.54 4.4L96.54 4.4Q95.74 3.7 95.37 2.63 94.99 1.55 94.99 0.2L94.99 0.2Q94.99-1.05 95.27-2.45 95.54-3.85 95.99-5.4L95.99-5.4Q95.04-4.2 93.87-2.95 92.69-1.7 91.64-0.8L91.64-0.8Q89.54 0.9 87.09 0.9L87.09 0.9Q85.24 0.9 83.94-0.28 82.64-1.45 82.64-3.95L82.64-3.95Q82.64-4.6 82.77-5.2 82.89-5.8 83.09-6.4L83.09-6.4Q82.79-6.15 82.52-5.9 82.24-5.65 81.99-5.45L81.99-5.45Q81.79-5.3 81.59-5.3L81.59-5.3Q81.34-5.3 81.34-5.55L81.34-5.55Q81.34-5.85 81.84-6.25L81.84-6.25Q82.49-6.8 83.32-7.75 84.14-8.7 85.14-9.8L85.14-9.8Q86.89-11.75 89.42-12.95 91.94-14.15 94.39-14.15L94.39-14.15Q96.49-14.15 97.47-13.4 98.44-12.65 98.44-11.6L98.44-11.6Q99.69-14.25 101.07-16.68 102.44-19.1 103.67-20.95 104.89-22.8 105.69-23.7L105.69-23.7Q106.24-24.35 107.07-24.65 107.89-24.95 108.74-24.95L108.74-24.95Q109.59-24.95 110.39-24.7 111.19-24.45 111.79-23.9L111.79-23.9Q111.29-23.6 110.22-22.48 109.14-21.35 107.77-19.7 106.39-18.05 104.92-16.15 103.44-14.25 102.14-12.35L102.14-12.35Q100.59-10.1 99.22-7.5 97.84-4.9 96.99-2.48 96.14-0.05 96.14 1.8L96.14 1.8Q96.14 3.3 96.79 4.1L96.79 4.1Q96.94 4.3 96.79 4.38 96.64 4.45 96.54 4.4ZM88.64-0.8L88.64-0.8Q89.54-0.8 91.04-1.73 92.54-2.65 94.74-4.9L94.74-4.9Q95.44-5.6 95.87-6.13 96.29-6.65 96.59-7.15L96.59-7.15Q96.84-7.85 97.09-8.5 97.34-9.15 97.64-9.8L97.64-9.8Q97.34-9.6 97.19-9.6L97.19-9.6Q96.79-9.6 96.79-10.05L96.79-10.05Q96.79-10.25 96.94-10.55L96.94-10.55Q97.44-11.4 97.44-12.05L97.44-12.05Q97.44-13.1 96.24-13.1L96.24-13.1Q95.59-13.1 94.49-12.7L94.49-12.7Q93.24-12.2 91.92-11.18 90.59-10.15 89.47-8.78 88.34-7.4 87.67-5.95 86.99-4.5 86.99-3.2L86.99-3.2Q86.99-2.25 87.37-1.53 87.74-0.8 88.64-0.8ZM119.49 0.05L119.49 0.05Q117.49 0.05 116.79-0.83 116.09-1.7 116.09-2.8L116.09-2.8Q116.09-4.5 116.86-5.65 117.64-6.8 118.89-8.25L118.89-8.25Q117.89-7.4 117.01-6.63 116.14-5.85 115.59-5.45L115.59-5.45Q115.44-5.3 115.29-5.3L115.29-5.3Q115.09-5.3 115.09-5.5L115.09-5.5Q115.09-5.9 115.69-6.4L115.69-6.4Q116.94-7.35 118.31-8.72 119.69-10.1 120.89-11.33 122.09-12.55 122.89-12.95L122.89-12.95Q123.44-13.25 123.94-13.38 124.44-13.5 124.79-13.5L124.79-13.5Q125.34-13.5 125.59-13.33 125.84-13.15 125.69-12.95L125.69-12.95Q124.84-12.05 123.99-10.73 123.14-9.4 122.44-7.95 121.74-6.5 121.31-5.18 120.89-3.85 120.89-3L120.89-3Q120.89-1.95 121.59-1.95L121.59-1.95Q122.14-1.95 122.86-2.45 123.59-2.95 124.24-3.55L124.24-3.55Q125.04-4.25 125.94-5.38 126.84-6.5 127.79-7.73 128.74-8.95 129.64-9.9L129.64-9.9Q130.39-10.75 131.21-11.33 132.04-11.9 132.99-11.9L132.99-11.9Q133.69-11.9 134.04-11.6 134.39-11.3 134.19-11.1L134.19-11.1Q133.19-10.05 132.36-8.6 131.54-7.15 131.06-5.68 130.59-4.2 130.59-3.05L130.59-3.05Q130.59-1.95 131.29-1.95L131.29-1.95Q131.84-1.95 132.56-2.45 133.29-2.95 133.99-3.55L133.99-3.55Q134.74-4.25 135.41-4.98 136.09-5.7 136.74-6.5L136.74-6.5Q136.84-9.1 137.41-10.78 137.99-12.45 138.79-13.3L138.79-13.3Q139.09-13.7 140.06-14 141.04-14.3 141.84-14.3L141.84-14.3Q142.79-14.3 142.79-13.8L142.79-13.8Q142.79-13.6 142.49-13.2L142.49-13.2Q141.94-12.55 141.16-11.48 140.39-10.4 139.74-9.28 139.09-8.15 138.84-7.3L138.84-7.3Q138.64-6.5 138.64-5.85L138.64-5.85Q138.64-4.9 139.29-4.9L139.29-4.9Q139.89-4.9 140.84-5.65L140.84-5.65Q140.99-5.8 141.44-6.15 141.89-6.5 142.34-6.9 142.79-7.3 142.99-7.5L142.99-7.5Q143.24-7.75 143.39-7.75L143.39-7.75Q143.54-7.75 143.54-7.5L143.54-7.5Q143.54-7.2 143.39-7.05L143.39-7.05Q142.94-6.6 142.19-5.9 141.44-5.2 141.04-4.9L141.04-4.9Q140.59-4.55 139.89-4.2 139.19-3.85 138.49-3.85L138.49-3.85Q137.89-3.85 137.41-4.25 136.94-4.65 136.84-5.6L136.84-5.6Q134.99-3.4 132.94-1.68 130.89 0.05 129.14 0.05L129.14 0.05Q127.14 0.05 126.46-0.83 125.79-1.7 125.79-2.75L125.79-2.75Q125.79-3.5 126.04-4.35L126.04-4.35Q124.39-2.55 122.66-1.25 120.94 0.05 119.49 0.05ZM145.99 0.45L145.99 0.45Q144.04 0.45 143.06-0.53 142.09-1.5 142.09-3.05L142.09-3.05Q142.09-4 142.34-4.9 142.59-5.8 142.89-6.5L142.89-6.5Q142.54-6.15 142.21-5.88 141.89-5.6 141.69-5.45L141.69-5.45Q141.49-5.3 141.34-5.3L141.34-5.3Q141.14-5.3 141.14-5.55L141.14-5.55Q141.14-5.9 141.64-6.35L141.64-6.35Q143.39-7.8 144.39-8.93 145.39-10.05 146.49-11L146.49-11Q148.34-12.6 150.44-13.5 152.54-14.4 154.64-14.4L154.64-14.4Q156.84-14.4 158.09-13.35 159.34-12.3 159.34-10.25L159.34-10.25Q159.34-9.1 158.66-7.6 157.99-6.1 156.54-4.5L156.54-4.5Q155.94-3.85 155.19-3.23 154.44-2.6 153.89-2.3L153.89-2.3Q156.34-2.55 158.49-4.03 160.64-5.5 162.34-6.95L162.34-6.95Q162.59-7.1 162.69-7.1L162.69-7.1Q162.94-7.1 162.94-6.85L162.94-6.85Q162.94-6.65 162.69-6.4L162.69-6.4Q160.54-4.35 158.06-2.95 155.59-1.55 152.59-1.6L152.59-1.6Q150.84-0.65 149.16-0.1 147.49 0.45 145.99 0.45ZM148.24-0.95L148.24-0.95Q148.94-0.95 149.74-1.2 150.54-1.45 151.34-1.85L151.34-1.85Q151.04-1.85 150.76-2.15 150.49-2.45 150.49-2.95L150.49-2.95Q150.49-3.95 151.24-5 151.99-6.05 153.09-6.8 154.19-7.55 155.24-7.55L155.24-7.55Q155.84-7.55 156.36-7.23 156.89-6.9 156.94-6.35L156.94-6.35Q157.79-7.3 158.11-8.4 158.44-9.5 158.44-10.45L158.44-10.45Q158.44-11.75 157.61-12.43 156.79-13.1 155.39-13.1L155.39-13.1Q154.04-13.1 152.41-12.15 150.79-11.2 149.36-9.7 147.94-8.2 147.01-6.45 146.09-4.7 146.09-3.1L146.09-3.1Q146.09-0.95 148.24-0.95ZM169.58 0.05L169.58 0.05Q167.43 0.05 166.68-0.78 165.93-1.6 165.93-2.6L165.93-2.6Q165.93-3.9 166.93-5.35L166.93-5.35Q167.53-6.2 168.28-7.28 169.03-8.35 169.68-9.3 170.33-10.25 170.58-10.65L170.58-10.65Q170.93-11.15 171.01-11.33 171.08-11.5 171.08-11.7L171.08-11.7Q171.08-12 170.71-12.28 170.33-12.55 169.48-12.55L169.48-12.55Q169.23-12.55 169.06-12.53 168.88-12.5 168.68-12.5L168.68-12.5Q168.28-12.5 168.23-12.55L168.23-12.55 168.08-12.35Q166.68-10.5 165.08-8.72 163.48-6.95 161.58-5.45L161.58-5.45Q161.38-5.3 161.28-5.3L161.28-5.3Q161.08-5.3 161.08-5.5L161.08-5.5Q161.08-5.9 161.68-6.4L161.68-6.4Q163.23-7.7 164.73-9.33 166.23-10.95 167.43-12.75L167.43-12.75Q166.98-13.05 166.98-13.95L166.98-13.95Q166.98-15.3 167.83-16.85L167.83-16.85Q168.43-17.9 169.16-18.43 169.88-18.95 170.43-18.95L170.43-18.95Q171.48-18.95 171.48-17.7L171.48-17.7Q171.48-16.9 170.88-15.7L170.88-15.7Q170.63-15.1 169.91-14.18 169.18-13.25 168.48-12.85L168.48-12.85Q169.53-13.2 171.16-13.33 172.78-13.45 173.88-13.45L173.88-13.45Q174.53-13.45 175.48-13.08 176.43-12.7 176.43-11.75L176.43-11.75Q176.43-11.1 175.83-10.35L175.83-10.35Q175.68-10.15 175.03-9.4 174.38-8.65 173.61-7.6 172.83-6.55 172.18-5.5L172.18-5.5Q171.53-4.55 171.16-3.75 170.78-2.95 170.78-2.4L170.78-2.4Q170.78-1.6 171.68-1.6L171.68-1.6Q172.73-1.6 174.48-2.6 176.23-3.6 178.26-5.18 180.28-6.75 181.98-8.45L181.98-8.45Q182.18-8.65 182.33-8.65L182.33-8.65Q182.53-8.65 182.53-8.4L182.53-8.4Q182.53-8.1 182.28-7.85L182.28-7.85Q180.53-6.1 178.41-4.28 176.28-2.45 174.01-1.2 171.73 0.05 169.58 0.05ZM181.98 3.95L181.98 3.95Q180.88 2.95 180.51 2.13 180.13 1.3 180.13-0.15L180.13-0.15Q180.13-1.65 180.56-3.5 180.98-5.35 181.78-7.35L181.78-7.35Q181.28-6.85 180.73-6.35 180.18-5.85 179.63-5.45L179.63-5.45Q179.48-5.3 179.33-5.3L179.33-5.3Q179.18-5.3 179.18-5.45L179.18-5.45Q179.18-5.8 179.78-6.4L179.78-6.4Q180.58-7.1 181.28-7.95 181.98-8.8 182.83-9.85L182.83-9.85Q185.33-15.4 188.43-19.85 191.53-24.3 195.93-28.4L195.93-28.4Q198.18-30.45 200.16-31.35 202.13-32.25 203.63-32.25L203.63-32.25Q205.13-32.25 205.98-31.45 206.83-30.65 206.83-29.35L206.83-29.35Q206.83-28.1 206.01-26.5 205.18-24.9 203.33-23.15L203.33-23.15Q202.03-21.9 200.23-20.58 198.43-19.25 196.53-18.1 194.63-16.95 192.98-16.2L192.98-16.2Q192.88-16.15 192.78-16.13 192.68-16.1 192.58-16.1L192.58-16.1Q192.23-16.1 192.23-16.35L192.23-16.35Q192.23-16.65 192.78-16.85L192.78-16.85Q194.33-17.55 196.21-18.75 198.08-19.95 199.83-21.35 201.58-22.75 202.78-24L202.78-24Q204.28-25.6 204.96-26.73 205.63-27.85 205.63-28.45L205.63-28.45Q205.63-29.2 204.78-29.2L204.78-29.2Q203.88-29.2 202.21-28.28 200.53-27.35 198.38-25.45L198.38-25.45Q195.73-23.1 193.16-20.05 190.58-17 188.46-14.03 186.33-11.05 184.93-8.75L184.93-8.75Q186.88-11.35 188.73-12.8 190.58-14.25 192.13-14.9L192.13-14.9Q193.43-15.4 194.58-15.4L194.58-15.4Q195.88-15.4 196.68-14.75 197.48-14.1 197.48-13.1L197.48-13.1Q197.48-12.1 196.81-10.85 196.13-9.6 194.53-8.4L194.53-8.4Q193.28-7.5 191.21-6.83 189.13-6.15 187.33-6.15L187.33-6.15Q186.28-6.15 185.53-6.45L185.53-6.45Q186.53-5.2 188.03-4.03 189.53-2.85 191.11-2.13 192.68-1.4 193.88-1.4L193.88-1.4Q194.73-1.4 195.43-1.85 196.13-2.3 196.13-2.95L196.13-2.95Q196.13-3.05 196.26-3.05 196.38-3.05 196.38-2.95L196.38-2.95Q196.38-2 195.61-1.4 194.83-0.8 193.73-0.55L193.73-0.55Q193.23-0.45 192.71-0.38 192.18-0.3 191.63-0.3L191.63-0.3Q189.58-0.3 187.81-1.03 186.03-1.75 184.76-2.83 183.48-3.9 182.93-4.9L182.93-4.9Q182.28-3.3 181.96-1.73 181.63-0.15 181.63 1.15L181.63 1.15Q181.63 2.9 182.23 3.65L182.23 3.65Q182.38 3.85 182.23 3.93 182.08 4 181.98 3.95ZM186.38-6.7L186.38-6.7Q187.63-6.7 189.36-7.3 191.08-7.9 192.18-8.75L192.18-8.75Q193.08-9.45 193.51-10.25 193.93-11.05 193.93-11.7L193.93-11.7Q193.93-12.4 193.51-12.88 193.08-13.35 192.28-13.35L192.28-13.35Q191.48-13.35 190.38-12.83 189.28-12.3 187.83-11L187.83-11Q187.03-10.25 186.21-9.45 185.38-8.65 184.68-7.8L184.68-7.8Q184.78-7.55 184.93-7.28 185.08-7 185.28-6.9L185.28-6.9Q185.48-6.8 185.78-6.75 186.08-6.7 186.38-6.7ZM213.88 0.05L213.88 0.05Q211.88 0.05 211.18-0.83 210.48-1.7 210.48-2.8L210.48-2.8Q210.48-4.5 211.25-5.65 212.03-6.8 213.28-8.25L213.28-8.25Q212.28-7.4 211.4-6.63 210.53-5.85 209.98-5.45L209.98-5.45Q209.83-5.3 209.68-5.3L209.68-5.3Q209.48-5.3 209.48-5.5L209.48-5.5Q209.48-5.9 210.08-6.4L210.08-6.4Q211.33-7.35 212.7-8.72 214.08-10.1 215.28-11.33 216.48-12.55 217.28-12.95L217.28-12.95Q217.83-13.25 218.33-13.38 218.83-13.5 219.18-13.5L219.18-13.5Q219.73-13.5 219.98-13.33 220.23-13.15 220.08-12.95L220.08-12.95Q219.23-12.05 218.38-10.73 217.53-9.4 216.83-7.95 216.13-6.5 215.7-5.18 215.28-3.85 215.28-3L215.28-3Q215.28-1.95 215.98-1.95L215.98-1.95Q216.53-1.95 217.25-2.45 217.98-2.95 218.63-3.55L218.63-3.55Q219.43-4.25 220.33-5.38 221.23-6.5 222.18-7.73 223.13-8.95 224.03-9.9L224.03-9.9Q224.78-10.75 225.6-11.33 226.43-11.9 227.38-11.9L227.38-11.9Q228.08-11.9 228.43-11.6 228.78-11.3 228.58-11.1L228.58-11.1Q227.58-10.05 226.75-8.6 225.93-7.15 225.45-5.68 224.98-4.2 224.98-3.05L224.98-3.05Q224.98-1.95 225.68-1.95L225.68-1.95Q226.23-1.95 226.95-2.45 227.68-2.95 228.38-3.55L228.38-3.55Q229.13-4.25 229.8-4.98 230.48-5.7 231.13-6.5L231.13-6.5Q231.23-9.1 231.8-10.78 232.38-12.45 233.18-13.3L233.18-13.3Q233.48-13.7 234.45-14 235.43-14.3 236.23-14.3L236.23-14.3Q237.18-14.3 237.18-13.8L237.18-13.8Q237.18-13.6 236.88-13.2L236.88-13.2Q236.33-12.55 235.55-11.48 234.78-10.4 234.13-9.28 233.48-8.15 233.23-7.3L233.23-7.3Q233.03-6.5 233.03-5.85L233.03-5.85Q233.03-4.9 233.68-4.9L233.68-4.9Q234.28-4.9 235.23-5.65L235.23-5.65Q235.38-5.8 235.83-6.15 236.28-6.5 236.73-6.9 237.18-7.3 237.38-7.5L237.38-7.5Q237.63-7.75 237.78-7.75L237.78-7.75Q237.93-7.75 237.93-7.5L237.93-7.5Q237.93-7.2 237.78-7.05L237.78-7.05Q237.33-6.6 236.58-5.9 235.83-5.2 235.43-4.9L235.43-4.9Q234.98-4.55 234.28-4.2 233.58-3.85 232.88-3.85L232.88-3.85Q232.28-3.85 231.8-4.25 231.33-4.65 231.23-5.6L231.23-5.6Q229.38-3.4 227.33-1.68 225.28 0.05 223.53 0.05L223.53 0.05Q221.53 0.05 220.85-0.83 220.18-1.7 220.18-2.75L220.18-2.75Q220.18-3.5 220.43-4.35L220.43-4.35Q218.78-2.55 217.05-1.25 215.33 0.05 213.88 0.05ZM247.67-15.3L247.67-15.3Q246.97-15.3 246.62-15.75 246.27-16.2 246.27-16.7L246.27-16.7Q246.27-17.7 247.22-18.68 248.17-19.65 249.22-19.65L249.22-19.65Q249.92-19.65 250.27-19.2 250.62-18.75 250.62-18.25L250.62-18.25Q250.62-17.2 249.7-16.25 248.77-15.3 247.67-15.3ZM240.02 0.05L240.02 0.05Q237.97 0.05 237.25-0.83 236.52-1.7 236.52-2.8L236.52-2.8Q236.52-3.7 236.82-4.53 237.12-5.35 237.32-5.7L237.32-5.7Q237.62-6.2 238.15-6.85 238.67-7.5 239.32-8.25L239.32-8.25Q238.32-7.4 237.45-6.6 236.57-5.8 236.02-5.4L236.02-5.4Q235.87-5.25 235.72-5.25L235.72-5.25Q235.52-5.25 235.52-5.5L235.52-5.5Q235.52-5.9 236.07-6.3L236.07-6.3Q237.37-7.4 238.6-8.7 239.82-10 240.92-11.13 242.02-12.25 242.87-12.7L242.87-12.7Q243.77-13.2 244.32-13.35 244.87-13.5 245.22-13.5L245.22-13.5Q245.77-13.5 246.02-13.33 246.27-13.15 246.12-12.95L246.12-12.95Q245.27-12.1 244.45-10.78 243.62-9.45 242.92-8 242.22-6.55 241.8-5.25 241.37-3.95 241.37-3.05L241.37-3.05Q241.37-1.8 242.37-1.8L242.37-1.8Q243.32-1.8 244.85-2.68 246.37-3.55 248.05-4.9 249.72-6.25 251.17-7.55L251.17-7.55Q251.37-7.75 251.52-7.75L251.52-7.75Q251.77-7.75 251.8-7.5 251.82-7.25 251.67-7.15L251.67-7.15Q250.02-5.6 247.95-3.93 245.87-2.25 243.8-1.1 241.72 0.05 240.02 0.05ZM254.87 0.25L254.87 0.25Q252.87 0.25 252.07-0.73 251.27-1.7 251.27-3L251.27-3Q251.27-4.25 251.75-5.65 252.22-7.05 252.82-8.3L252.82-8.3Q252.17-7.6 251.57-7.03 250.97-6.45 250.57-6.1L250.57-6.1Q250.37-5.95 250.17-5.95L250.17-5.95Q249.92-5.95 249.92-6.2L249.92-6.2Q249.92-6.45 250.22-6.65L250.22-6.65Q251.27-7.55 252.67-9.1 254.07-10.65 255.27-12.25L255.27-12.25Q256.27-13.55 257.67-15.5 259.07-17.45 260.52-19.63 261.97-21.8 263.02-23.6L263.02-23.6Q263.17-23.9 263.35-24.35 263.52-24.8 263.52-25.15L263.52-25.15Q263.52-25.65 263.12-25.65L263.12-25.65Q263.02-25.65 262.55-25.45 262.07-25.25 261.62-25.05 261.17-24.85 261.07-24.85L261.07-24.85Q260.67-24.85 261.12-25.3L261.12-25.3Q261.92-25.9 263.15-26.48 264.37-27.05 265.67-27.45 266.97-27.85 267.87-27.85L267.87-27.85Q269.97-27.85 269.97-26.5L269.97-26.5Q269.97-25.8 269.32-24.65L269.32-24.65Q268.77-23.75 267.72-22.53 266.67-21.3 265.4-19.93 264.12-18.55 262.92-17.23 261.72-15.9 260.92-14.9L260.92-14.9Q260.72-14.65 259.95-13.6 259.17-12.55 258.2-11.08 257.22-9.6 256.25-7.98 255.27-6.35 254.65-4.88 254.02-3.4 254.02-2.4L254.02-2.4Q254.02-1.05 255.32-1.05L255.32-1.05Q256.17-1.05 257.47-1.55L257.47-1.55Q258.72-2 260.1-2.93 261.47-3.85 262.8-4.9 264.12-5.95 265.15-6.9 266.17-7.85 266.67-8.35L266.67-8.35Q266.97-8.65 267.17-8.65L267.17-8.65Q267.37-8.65 267.37-8.4L267.37-8.4Q267.37-8.15 267.12-7.9L267.12-7.9Q266.32-7.05 264.95-5.7 263.57-4.35 261.9-2.98 260.22-1.6 258.42-0.68 256.62 0.25 254.87 0.25ZM269.57 0.25L269.57 0.25Q267.57 0.25 266.77-0.73 265.97-1.7 265.97-3L265.97-3Q265.97-4.25 266.44-5.65 266.92-7.05 267.52-8.3L267.52-8.3Q266.87-7.6 266.27-7.03 265.67-6.45 265.27-6.1L265.27-6.1Q265.07-5.95 264.87-5.95L264.87-5.95Q264.62-5.95 264.62-6.2L264.62-6.2Q264.62-6.45 264.92-6.65L264.92-6.65Q265.97-7.55 267.37-9.1 268.77-10.65 269.97-12.25L269.97-12.25Q270.97-13.55 272.37-15.5 273.77-17.45 275.22-19.63 276.67-21.8 277.72-23.6L277.72-23.6Q277.87-23.9 278.04-24.35 278.22-24.8 278.22-25.15L278.22-25.15Q278.22-25.65 277.82-25.65L277.82-25.65Q277.72-25.65 277.24-25.45 276.77-25.25 276.32-25.05 275.87-24.85 275.77-24.85L275.77-24.85Q275.37-24.85 275.82-25.3L275.82-25.3Q276.62-25.9 277.84-26.48 279.07-27.05 280.37-27.45 281.67-27.85 282.57-27.85L282.57-27.85Q284.67-27.85 284.67-26.5L284.67-26.5Q284.67-25.8 284.02-24.65L284.02-24.65Q283.47-23.75 282.42-22.53 281.37-21.3 280.09-19.93 278.82-18.55 277.62-17.23 276.42-15.9 275.62-14.9L275.62-14.9Q275.42-14.65 274.64-13.6 273.87-12.55 272.89-11.08 271.92-9.6 270.94-7.98 269.97-6.35 269.34-4.88 268.72-3.4 268.72-2.4L268.72-2.4Q268.72-1.05 270.02-1.05L270.02-1.05Q270.87-1.05 272.17-1.55L272.17-1.55Q273.42-2 274.79-2.93 276.17-3.85 277.49-4.9 278.82-5.95 279.84-6.9 280.87-7.85 281.37-8.35L281.37-8.35Q281.67-8.65 281.87-8.65L281.87-8.65Q282.07-8.65 282.07-8.4L282.07-8.4Q282.07-8.15 281.82-7.9L281.82-7.9Q281.02-7.05 279.64-5.7 278.27-4.35 276.59-2.98 274.92-1.6 273.12-0.68 271.32 0.25 269.57 0.25ZM287.06 13.9L287.06 13.9Q286.71 13.4 286.34 12.65 285.96 11.9 285.96 10.6L285.96 10.6Q285.96 9.55 286.71 7.58 287.46 5.6 288.69 3.1 289.91 0.6 291.44-2.08 292.96-4.75 294.51-7.15L294.51-7.15Q293.56-6.2 292.56-5.45L292.56-5.45Q292.36-5.3 292.26-5.3L292.26-5.3Q292.11-5.3 292.11-5.5L292.11-5.5Q292.11-5.6 292.24-5.85 292.36-6.1 292.66-6.35L292.66-6.35Q293.66-7.2 295.06-8.68 296.46-10.15 297.96-12.05L297.96-12.05Q299.11-13.5 299.96-14.63 300.81-15.75 301.31-16.25L301.31-16.25Q301.86-16.8 302.31-17.1 302.76-17.4 303.26-17.4L303.26-17.4Q303.81-17.4 304.54-17.13 305.26-16.85 305.91-16.15L305.91-16.15Q305.36-15.5 304.46-14.3 303.56-13.1 302.76-12L302.76-12Q303.91-13.35 305.81-14.4 307.71-15.45 309.36-15.45L309.36-15.45Q310.86-15.45 311.76-14.5 312.66-13.55 312.66-12L312.66-12Q312.66-10.3 311.71-8.28 310.76-6.25 309.16-4.35L309.16-4.35Q307.21-2.05 304.84-0.6 302.46 0.85 300.51 0.85L300.51 0.85Q299.11 0.85 298.31 0.05 297.51-0.75 297.51-2.3L297.51-2.3Q297.51-3.9 298.21-5.75L298.21-5.75Q296.86-4.05 295.34-1.85 293.81 0.35 292.36 2.65 290.91 4.95 289.74 7.05 288.56 9.15 287.86 10.75 287.16 12.35 287.16 13.15L287.16 13.15Q287.16 13.55 287.26 13.65L287.26 13.65Q287.41 13.85 287.29 13.93 287.16 14 287.06 13.9ZM300.26 0.3L300.26 0.3Q301.71 0.3 303.14-0.63 304.56-1.55 305.71-3.05 306.86-4.55 307.56-6.25 308.26-7.95 308.26-9.45L308.26-9.45Q308.26-10.8 307.64-11.55 307.01-12.3 305.91-12.3L305.91-12.3Q304.61-12.3 302.96-11.18 301.31-10.05 299.96-7.95L299.96-7.95Q298.96-6.5 298.54-5.03 298.11-3.55 298.11-2.4L298.11-2.4Q298.11-0.95 298.71-0.33 299.31 0.3 300.26 0.3ZM315.81 0.05L315.81 0.05Q314.26 0.05 313.41-0.93 312.56-1.9 312.56-3.45L312.56-3.45Q312.56-4.9 313.34-6.65 314.11-8.4 315.81-10.2L315.81-10.2Q317.56-12.1 320.16-13.28 322.76-14.45 325.11-14.45L325.11-14.45Q327.01-14.45 328.36-13.63 329.71-12.8 330.16-11.55L330.16-11.55Q330.71-11.55 331.54-11.25 332.36-10.95 332.36-10.15L332.36-10.15Q332.36-9.6 331.81-8.9L331.81-8.9Q331.46-8.4 330.59-7.4 329.71-6.4 328.96-5.25L328.96-5.25Q328.36-4.35 328.01-3.58 327.66-2.8 327.66-2.25L327.66-2.25Q327.66-1.5 328.41-1.5L328.41-1.5Q329.26-1.5 330.96-2.45L330.96-2.45Q332.81-3.5 334.51-4.85 336.21-6.2 337.16-7L337.16-7Q337.41-7.2 337.51-7.2L337.51-7.2Q337.71-7.2 337.71-6.95L337.71-6.95Q337.71-6.65 337.46-6.4L337.46-6.4Q337.01-6 335.71-4.9 334.41-3.8 332.74-2.6 331.06-1.4 329.46-0.65L329.46-0.65Q328.66-0.3 327.99-0.13 327.31 0.05 326.76 0.05L326.76 0.05Q325.41 0.05 324.71-0.73 324.01-1.5 324.01-2.75L324.01-2.75Q324.01-3.25 324.16-3.8 324.31-4.35 324.51-4.9L324.51-4.9 324.86-5.75Q323.56-4.15 322.26-3.08 320.96-2 319.66-1.2L319.66-1.2Q318.56-0.55 317.59-0.25 316.61 0.05 315.81 0.05ZM317.36-1.25L317.36-1.25Q318.26-1.25 319.96-2.33 321.66-3.4 323.91-5.65L323.91-5.65Q324.21-5.95 325.04-6.73 325.86-7.5 326.81-8.47 327.76-9.45 328.44-10.43 329.11-11.4 329.11-12.05L329.11-12.05Q329.11-13 327.46-13L327.46-13Q326.01-13 323.99-11.88 321.96-10.75 320.11-8.55L320.11-8.55Q318.21-6.3 317.34-4.67 316.46-3.05 316.46-2.2L316.46-2.2Q316.46-1.25 317.36-1.25ZM333.46 13.45L333.46 13.45Q331.06 13.45 329.03 12.73 327.01 12 325.66 10.45L325.66 10.45Q324.31 8.9 323.86 6.3L323.86 6.3Q323.76 5.9 324.06 5.9L324.06 5.9Q324.26 5.9 324.36 6.25L324.36 6.25Q324.91 9.05 327.08 10.8 329.26 12.55 332.06 12.55L332.06 12.55Q334.66 12.55 337.31 11.18 339.96 9.8 342.46 7.43 344.96 5.05 347.16 2.05L347.16 2.05Q349.51-1.15 351.43-4.6 353.36-8.05 355.16-11.55L355.16-11.55Q354.51-10.6 353.81-9.6 353.11-8.6 352.41-7.75L352.41-7.75Q351.06-6.05 349.33-4.28 347.61-2.5 345.91-1.28 344.21-0.05 342.81-0.05L342.81-0.05Q341.71-0.05 340.98-0.65 340.26-1.25 340.26-2.5L340.26-2.5Q340.26-3.6 340.66-4.53 341.06-5.45 341.56-6.25L341.56-6.25Q342.41-7.65 343.61-9.1 344.81-10.55 345.71-11.55L345.71-11.55Q346.26-12.2 346.26-12.6L346.26-12.6Q346.26-13.1 345.71-13.1L345.71-13.1Q345.06-13.1 344.06-12.3L344.06-12.3Q342.86-11.45 341.61-10.28 340.36-9.1 339.26-8.05 338.16-7 337.46-6.4L337.46-6.4Q337.11-6.15 336.96-6.15L336.96-6.15Q336.76-6.15 336.76-6.35L336.76-6.35Q336.76-6.65 337.11-6.95L337.11-6.95Q338.11-7.8 339.23-8.95 340.36-10.1 341.48-11.23 342.61-12.35 343.56-13.05L343.56-13.05Q344.31-13.65 345.11-13.93 345.91-14.2 346.61-14.2L346.61-14.2Q347.81-14.2 348.63-13.5 349.46-12.8 349.46-11.55L349.46-11.55Q349.46-10.6 348.96-9.55L348.96-9.55Q348.36-8.3 347.43-7.08 346.51-5.85 345.66-4.7L345.66-4.7Q345.01-3.75 344.71-3.15 344.41-2.55 344.41-2.3L344.41-2.3Q344.41-1.85 344.81-1.85L344.81-1.85Q345.21-1.85 345.98-2.3 346.76-2.75 347.56-3.45L347.56-3.45Q348.91-4.7 350.53-6.53 352.16-8.35 353.71-10.35 355.26-12.35 356.41-14.05L356.41-14.05Q357.11-15.7 357.91-16.95 358.71-18.2 359.96-18.2L359.96-18.2Q360.66-18.2 361.08-17.8 361.51-17.4 361.51-17L361.51-17Q361.51-16.65 361.21-16.43 360.91-16.2 360.21-16.25L360.21-16.25Q359.66-16.35 358.96-16.05 358.26-15.75 357.51-14.15L357.51-14.15Q356.71-12.35 355.98-9.95 355.26-7.55 354.26-4.8 353.26-2.05 351.63 0.88 350.01 3.8 347.31 6.65L347.31 6.65Q344.66 9.45 341.03 11.45 337.41 13.45 333.46 13.45ZM376.25 0.45L376.25 0.45Q374.3 0.45 373.33-0.53 372.35-1.5 372.35-3.05L372.35-3.05Q372.35-4 372.6-4.9 372.85-5.8 373.15-6.5L373.15-6.5Q372.8-6.15 372.48-5.88 372.15-5.6 371.95-5.45L371.95-5.45Q371.75-5.3 371.6-5.3L371.6-5.3Q371.4-5.3 371.4-5.55L371.4-5.55Q371.4-5.9 371.9-6.35L371.9-6.35Q373.65-7.8 374.65-8.93 375.65-10.05 376.75-11L376.75-11Q378.6-12.6 380.7-13.5 382.8-14.4 384.9-14.4L384.9-14.4Q387.1-14.4 388.35-13.35 389.6-12.3 389.6-10.25L389.6-10.25Q389.6-9.1 388.93-7.6 388.25-6.1 386.8-4.5L386.8-4.5Q386.2-3.85 385.45-3.23 384.7-2.6 384.15-2.3L384.15-2.3Q386.6-2.55 388.75-4.03 390.9-5.5 392.6-6.95L392.6-6.95Q392.85-7.1 392.95-7.1L392.95-7.1Q393.2-7.1 393.2-6.85L393.2-6.85Q393.2-6.65 392.95-6.4L392.95-6.4Q390.8-4.35 388.33-2.95 385.85-1.55 382.85-1.6L382.85-1.6Q381.1-0.65 379.43-0.1 377.75 0.45 376.25 0.45ZM378.5-0.95L378.5-0.95Q379.2-0.95 380-1.2 380.8-1.45 381.6-1.85L381.6-1.85Q381.3-1.85 381.03-2.15 380.75-2.45 380.75-2.95L380.75-2.95Q380.75-3.95 381.5-5 382.25-6.05 383.35-6.8 384.45-7.55 385.5-7.55L385.5-7.55Q386.1-7.55 386.63-7.23 387.15-6.9 387.2-6.35L387.2-6.35Q388.05-7.3 388.38-8.4 388.7-9.5 388.7-10.45L388.7-10.45Q388.7-11.75 387.88-12.43 387.05-13.1 385.65-13.1L385.65-13.1Q384.3-13.1 382.68-12.15 381.05-11.2 379.63-9.7 378.2-8.2 377.28-6.45 376.35-4.7 376.35-3.1L376.35-3.1Q376.35-0.95 378.5-0.95ZM393.05 4.45L393.05 4.45Q392 3.6 391.6 2.48 391.2 1.35 391.2 0.25L391.2 0.25Q391.2-1.6 392.03-4.5 392.85-7.4 394.25-10.6L394.25-10.6Q394.15-10.55 394.05-10.55L394.05-10.55Q393.8-10.55 393.53-11.13 393.25-11.7 393.25-12.35L393.25-12.35Q393.25-13.05 393.73-13.75 394.2-14.45 395.6-14.8L395.6-14.8Q395.9-14.9 396.4-15L396.4-15Q398-18 399.85-20.48 401.7-22.95 403.55-24.2L403.55-24.2Q404.7-25 405.98-25.38 407.25-25.75 408.5-25.75L408.5-25.75Q410-25.75 411.45-25.2 412.9-24.65 413.85-23.58 414.8-22.5 414.8-20.9L414.8-20.9 414.8-20.85Q414.8-20.65 414.65-20.65 414.5-20.65 414.4-20.9L414.4-20.9Q414.05-22.25 413.05-22.83 412.05-23.4 410.85-23.4L410.85-23.4Q409.9-23.4 408.95-23.1 408-22.8 407.3-22.35L407.3-22.35Q405.5-21.2 403.7-19.18 401.9-17.15 400.45-15.15L400.45-15.15Q401.8-15.05 402.88-14.7 403.95-14.35 404.45-13.95L404.45-13.95Q405.15-13.45 405.5-12.9L405.5-12.9Q405.7-12.55 405.7-12.3L405.7-12.3Q405.7-12 405.45-12L405.45-12Q405.3-12 405-12.15L405-12.15Q404.1-12.75 402.2-12.75L402.2-12.75Q401.4-12.75 400.45-12.63 399.5-12.5 398.45-12.2L398.45-12.2 397.8-11.25Q396.2-8.9 395.05-6.43 393.9-3.95 393.3-1.75 392.7 0.45 392.7 2.05L392.7 2.05Q392.7 3.45 393.3 4.2L393.3 4.2Q393.45 4.4 393.3 4.48 393.15 4.55 393.05 4.45ZM405 4.45L405 4.45Q403.95 3.6 403.55 2.48 403.15 1.35 403.15 0.25L403.15 0.25Q403.15-1.6 403.97-4.5 404.8-7.4 406.2-10.6L406.2-10.6Q406.1-10.55 406-10.55L406-10.55Q405.75-10.55 405.47-11.13 405.2-11.7 405.2-12.35L405.2-12.35Q405.2-13.05 405.67-13.75 406.15-14.45 407.55-14.8L407.55-14.8Q407.85-14.9 408.35-15L408.35-15Q409.95-18 411.8-20.48 413.65-22.95 415.5-24.2L415.5-24.2Q416.65-25 417.92-25.38 419.2-25.75 420.45-25.75L420.45-25.75Q421.95-25.75 423.4-25.2 424.85-24.65 425.8-23.58 426.75-22.5 426.75-20.9L426.75-20.9 426.75-20.85Q426.75-20.65 426.6-20.65 426.45-20.65 426.35-20.9L426.35-20.9Q426-22.25 425-22.83 424-23.4 422.8-23.4L422.8-23.4Q421.85-23.4 420.9-23.1 419.95-22.8 419.25-22.35L419.25-22.35Q417.45-21.2 415.65-19.18 413.85-17.15 412.4-15.15L412.4-15.15Q413.75-15.05 414.82-14.7 415.9-14.35 416.4-13.95L416.4-13.95Q417.1-13.45 417.45-12.9L417.45-12.9Q417.65-12.55 417.65-12.3L417.65-12.3Q417.65-12 417.4-12L417.4-12Q417.25-12 416.95-12.15L416.95-12.15Q416.05-12.75 414.15-12.75L414.15-12.75Q413.35-12.75 412.4-12.63 411.45-12.5 410.4-12.2L410.4-12.2 409.75-11.25Q408.15-8.9 407-6.43 405.85-3.95 405.25-1.75 404.65 0.45 404.65 2.05L404.65 2.05Q404.65 3.45 405.25 4.2L405.25 4.2Q405.4 4.4 405.25 4.48 405.1 4.55 405 4.45Z" opacity="1" transform="matrix(1,0,0,1,0,0)" fill="#135d66" class="slogan-text-1" data-fill-palette-color="secondary" id="text-1"></path></svg></g></svg></g></svg></g></svg></g></svg></g></svg></g></svg></g><g mask="url(#08351a6f-d642-45f3-9372-4ef77d8243c4)"><g transform="matrix(2.4519754802451974, 0, 0, 2.4519754802451974, 144.8644659892861, 1)"><svg xmlns="http://www.w3.org/2000/svg" xmlns:xlink="http://www.w3.org/1999/xlink" version="1.1" x="0" y="0" viewBox="28.428 0 43.14523896089234 100.001" enable-background="new 0 0 100 100" xml:space="preserve" id="none" width="43.14523896089234" height="100.001" class="icon-none" data-fill-palette-color="accent"><g fill="#8bd8bc" data-fill-palette-color="accent"><path d="M67.075 80.676L60.222 62.577C62.052 60.964 62.497 57.985 62.497 57.405V22.501H62.494A4.454 4.454 0 0 0 58.117 18.051H50.774L51.755 8.957 51.71 8.93C57.227 8.578 51.946 6.957 51.946 6.297 51.947 4.792 50.035 0 45.802 0S39.657 4.792 39.657 6.298C39.657 6.958 34.435 8.579 39.892 8.931L39.847 8.958 40.827 18.052H34.508A4.454 4.454 0 0 0 30.131 22.502H30.13V57.406C30.13 58.205 30.13 63.624 34.566 63.624L32.345 96.935H30.98C28.428 96.935 28.428 100.001 28.428 100.001H42.396L45.803 70.524 48.87 100H62.498S62.498 97.44 60.793 97.44H59.09L57.431 63.855 64.212 81.762A4.443 4.443 0 0 0 66.43 89.516L64.847 85.329 68.968 83.768 70.554 87.953A4.44 4.44 0 0 0 71.285 83.549 4.45 4.45 0 0 0 67.075 80.676M34.689 62.049H34.671L34.689 62.046zM34.665 62.049C34.436 62.046 31.576 61.898 31.576 58.279V55.36H35.045zM48.924 16.372C48.733 17.84 47.136 18.052 47.136 18.052H44.468S42.87 17.841 42.68 16.372A188 188 0 0 1 41.937 9.038C43.076 9.047 44.393 9.014 45.802 9.014S48.531 9.047 49.667 9.038A190 190 0 0 1 48.924 16.372M57.344 62.049L57.06 56.044H57.051L57.045 55.888V55.876H57.043L57.023 55.36H60.543V58.279C60.544 62.049 57.344 62.049 57.344 62.049" fill="#8bd8bc" data-fill-palette-color="accent"></path></g></svg></g></g></svg></g><defs></defs></svg><rect width="395.52" height="247.2" fill="none" stroke="none" visibility="hidden"></rect></g></svg></g></svg>